<svg xmlns="http://www.w3.org/2000/svg" width="40" height="32.464" viewBox="0 0 40 32.464">
  <g id="Group_3020" data-name="Group 3020" transform="translate(-227 -705.536)">
    <rect id="Rectangle_2124" data-name="Rectangle 2124" width="40" height="32" transform="translate(227 706)" fill="#fff"/>
    <g id="Group_3019" data-name="Group 3019" transform="translate(-756.286 220.786)">
      <g id="Group_2957" data-name="Group 2957" transform="translate(988.936 484.75)">
        <g id="Group_2956" data-name="Group 2956" transform="translate(0 0)">
          <g id="Group_2955" data-name="Group 2955">
            <g id="Group_2954" data-name="Group 2954">
              <path id="Path_5797" data-name="Path 5797" d="M1019.45,493.856H989.312a.376.376,0,0,1-.182-.7L1004.2,484.8a.376.376,0,0,1,.364,0l15.069,8.355a.376.376,0,0,1-.182.7Zm-28.686-.751H1018l-13.616-7.549Z" transform="translate(-988.936 -484.75)" fill="#50b848"/>
            </g>
          </g>
        </g>
      </g>
      <g id="Group_2961" data-name="Group 2961" transform="translate(991.107 493.48)">
        <g id="Group_2960" data-name="Group 2960" transform="translate(0 0)">
          <g id="Group_2959" data-name="Group 2959">
            <g id="Group_2958" data-name="Group 2958">
              <path id="Path_5798" data-name="Path 5798" d="M1024.151,521.865H997.6v-2.259h.751v1.507H1023.4v-1.507h.751Z" transform="translate(-997.602 -519.607)" fill="#50b848"/>
            </g>
          </g>
        </g>
      </g>
      <g id="Group_2965" data-name="Group 2965" transform="translate(991.107 508.503)">
        <g id="Group_2964" data-name="Group 2964" transform="translate(0 0)">
          <g id="Group_2963" data-name="Group 2963">
            <g id="Group_2962" data-name="Group 2962">
              <path id="Path_5799" data-name="Path 5799" d="M1024.151,582.358h-.751v-2.019H998.354v2.019H997.6v-2.77h26.548Z" transform="translate(-997.602 -579.588)" fill="#50b848"/>
            </g>
          </g>
        </g>
      </g>
      <g id="Group_2969" data-name="Group 2969" transform="translate(991.106 494.987)">
        <g id="Group_2968" data-name="Group 2968" transform="translate(0 0)">
          <g id="Group_2967" data-name="Group 2967">
            <g id="Group_2966" data-name="Group 2966">
              <path id="Path_5800" data-name="Path 5800" d="M1001.934,528.8a1.2,1.2,0,0,1-1.135-.82h-.866a1.2,1.2,0,0,1-2.332-.376v-1.983h5.529v1.983A1.2,1.2,0,0,1,1001.934,528.8Zm-2.692-1.572h2.248v.376a.445.445,0,0,0,.889,0v-1.231h-4.026v1.231a.445.445,0,0,0,.889,0Z" transform="translate(-997.602 -525.624)" fill="#50b848"/>
            </g>
          </g>
        </g>
      </g>
      <g id="Group_2973" data-name="Group 2973" transform="translate(991.106 506.076)">
        <g id="Group_2972" data-name="Group 2972" transform="translate(0 0)">
          <g id="Group_2971" data-name="Group 2971">
            <g id="Group_2970" data-name="Group 2970">
              <path id="Path_5801" data-name="Path 5801" d="M1003.131,573.076H997.6v-1.982a1.2,1.2,0,0,1,2.332-.376h.866a1.2,1.2,0,0,1,2.332.376Zm-4.777-.751h4.026v-1.231a.445.445,0,0,0-.889,0v.376h-2.248v-.376a.445.445,0,0,0-.889,0Z" transform="translate(-997.602 -569.898)" fill="#50b848"/>
            </g>
          </g>
        </g>
      </g>
      <g id="Group_2977" data-name="Group 2977" transform="translate(1001.616 506.076)">
        <g id="Group_2976" data-name="Group 2976" transform="translate(0 0)">
          <g id="Group_2975" data-name="Group 2975">
            <g id="Group_2974" data-name="Group 2974">
              <path id="Path_5802" data-name="Path 5802" d="M1045.093,573.076h-5.529v-1.982a1.2,1.2,0,0,1,2.332-.376h.866a1.2,1.2,0,0,1,2.332.376Zm-4.777-.751h4.026v-1.231a.445.445,0,0,0-.889,0v.376H1041.2v-.376a.445.445,0,1,0-.889,0Z" transform="translate(-1039.564 -569.898)" fill="#50b848"/>
            </g>
          </g>
        </g>
      </g>
      <g id="Group_2981" data-name="Group 2981" transform="translate(1012.126 506.076)">
        <g id="Group_2980" data-name="Group 2980" transform="translate(0 0)">
          <g id="Group_2979" data-name="Group 2979">
            <g id="Group_2978" data-name="Group 2978">
              <path id="Path_5803" data-name="Path 5803" d="M1087.055,573.076h-5.529v-1.982a1.2,1.2,0,0,1,2.331-.376h.866a1.2,1.2,0,0,1,2.332.376Zm-4.777-.751h4.026v-1.231a.445.445,0,0,0-.889,0v.376h-2.248v-.376a.445.445,0,0,0-.889,0Z" transform="translate(-1081.526 -569.898)" fill="#50b848"/>
            </g>
          </g>
        </g>
      </g>
      <g id="Group_2985" data-name="Group 2985" transform="translate(1001.616 494.987)">
        <g id="Group_2984" data-name="Group 2984" transform="translate(0 0)">
          <g id="Group_2983" data-name="Group 2983">
            <g id="Group_2982" data-name="Group 2982">
              <path id="Path_5804" data-name="Path 5804" d="M1043.9,528.8a1.2,1.2,0,0,1-1.135-.82h-.866a1.2,1.2,0,0,1-2.332-.376v-1.983h5.529v1.983A1.2,1.2,0,0,1,1043.9,528.8Zm-2.692-1.572h2.248v.376a.445.445,0,0,0,.889,0v-1.231h-4.026v1.231a.445.445,0,1,0,.889,0Z" transform="translate(-1039.564 -525.624)" fill="#50b848"/>
            </g>
          </g>
        </g>
      </g>
      <g id="Group_2989" data-name="Group 2989" transform="translate(1012.126 494.987)">
        <g id="Group_2988" data-name="Group 2988" transform="translate(0 0)">
          <g id="Group_2987" data-name="Group 2987">
            <g id="Group_2986" data-name="Group 2986">
              <path id="Path_5805" data-name="Path 5805" d="M1085.859,528.8a1.2,1.2,0,0,1-1.136-.82h-.866a1.2,1.2,0,0,1-2.331-.376v-1.983h5.529v1.983A1.2,1.2,0,0,1,1085.859,528.8Zm-2.692-1.572h2.248v.376a.445.445,0,0,0,.889,0v-1.231h-4.026v1.231a.445.445,0,0,0,.889,0Z" transform="translate(-1081.526 -525.624)" fill="#50b848"/>
            </g>
          </g>
        </g>
      </g>
      <g id="Group_2998" data-name="Group 2998" transform="translate(991.927 497.79)">
        <g id="Group_2993" data-name="Group 2993" transform="translate(0)">
          <g id="Group_2992" data-name="Group 2992">
            <g id="Group_2991" data-name="Group 2991">
              <g id="Group_2990" data-name="Group 2990">
                <rect id="Rectangle_2117" data-name="Rectangle 2117" width="0.751" height="8.662" fill="#50b848"/>
              </g>
            </g>
          </g>
        </g>
        <g id="Group_2997" data-name="Group 2997" transform="translate(3.137)">
          <g id="Group_2996" data-name="Group 2996">
            <g id="Group_2995" data-name="Group 2995">
              <g id="Group_2994" data-name="Group 2994">
                <rect id="Rectangle_2118" data-name="Rectangle 2118" width="0.751" height="8.662" fill="#50b848"/>
              </g>
            </g>
          </g>
        </g>
      </g>
      <g id="Group_3002" data-name="Group 3002" transform="translate(1002.436 497.79)">
        <g id="Group_3001" data-name="Group 3001" transform="translate(0)">
          <g id="Group_3000" data-name="Group 3000">
            <g id="Group_2999" data-name="Group 2999">
              <rect id="Rectangle_2119" data-name="Rectangle 2119" width="0.751" height="8.662" fill="#50b848"/>
            </g>
          </g>
        </g>
      </g>
      <g id="Group_3006" data-name="Group 3006" transform="translate(1005.573 497.79)">
        <g id="Group_3005" data-name="Group 3005" transform="translate(0)">
          <g id="Group_3004" data-name="Group 3004">
            <g id="Group_3003" data-name="Group 3003">
              <rect id="Rectangle_2120" data-name="Rectangle 2120" width="0.751" height="8.662" fill="#50b848"/>
            </g>
          </g>
        </g>
      </g>
      <g id="Group_3010" data-name="Group 3010" transform="translate(1012.946 497.79)">
        <g id="Group_3009" data-name="Group 3009" transform="translate(0)">
          <g id="Group_3008" data-name="Group 3008">
            <g id="Group_3007" data-name="Group 3007">
              <rect id="Rectangle_2121" data-name="Rectangle 2121" width="0.751" height="8.662" fill="#50b848"/>
            </g>
          </g>
        </g>
      </g>
      <g id="Group_3014" data-name="Group 3014" transform="translate(1016.083 497.79)">
        <g id="Group_3013" data-name="Group 3013" transform="translate(0)">
          <g id="Group_3012" data-name="Group 3012">
            <g id="Group_3011" data-name="Group 3011">
              <rect id="Rectangle_2122" data-name="Rectangle 2122" width="0.751" height="8.662" fill="#50b848"/>
            </g>
          </g>
        </g>
      </g>
      <g id="Group_3018" data-name="Group 3018" transform="translate(988.936 510.897)">
        <g id="Group_3017" data-name="Group 3017" transform="translate(0 0)">
          <g id="Group_3016" data-name="Group 3016">
            <g id="Group_3015" data-name="Group 3015">
              <path id="Path_5806" data-name="Path 5806" d="M1019.825,591.948H988.936v-.418a2.385,2.385,0,0,1,2.382-2.382h26.125a2.385,2.385,0,0,1,2.382,2.382Zm-30.1-.751h29.318a1.633,1.633,0,0,0-1.6-1.3H991.318A1.633,1.633,0,0,0,989.722,591.2Z" transform="translate(-988.936 -589.148)" fill="#50b848"/>
            </g>
          </g>
        </g>
      </g>
    </g>
  </g>
</svg>
