<svg xmlns="http://www.w3.org/2000/svg" width="31.785" height="31.036" viewBox="0 0 31.785 31.036">
  <path id="bank_statment_icon" data-name="bank statment icon" d="M503.508,495.467a1.452,1.452,0,0,0,1.456-1.407v-.414h1.821v-2.109l-15.893-10.054L475,491.536v2.109h1.821v.414a1.368,1.368,0,0,0,1.358,1.407h1.291v11.423h-1.291a1.368,1.368,0,0,0-1.358,1.407v.579h-.463A1.368,1.368,0,0,0,475,510.283v2.235h31.785v-2.235a1.452,1.452,0,0,0-1.456-1.407h-.365V508.3a1.452,1.452,0,0,0-1.456-1.407h-1.027V495.467Zm-26.736-2.98h-.613v-.312l14.734-9.322,14.734,9.322v.312H476.772Zm28.557,17.548a.3.3,0,0,1,.3.248v1.076H476.159v-1.076c0-.137.062-.248.2-.248Zm-1.821-1.987a.3.3,0,0,1,.3.248v.414H477.98V508.3c0-.137.062-.248.2-.248h25.329Zm-22.879-1.159V495.632h3.311v11.257Zm4.47,0V495.467h3.145v11.423Zm4.3,0V495.632h3.145v11.257Zm4.3,0V495.467h3.311v11.423Zm4.47,0V495.632h3.145v11.257Zm-20-12.582c-.137,0-.2-.111-.2-.248v-.414h25.826v.414a.3.3,0,0,1-.3.248ZM491,484.959a3.031,3.031,0,1,0,3.031,3.031A3.034,3.034,0,0,0,491,484.959Zm0,4.9a1.872,1.872,0,1,1,1.872-1.872A1.874,1.874,0,0,1,491,489.862Z" transform="translate(-475 -481.482)" fill="#50b848"/>
</svg>
