<svg xmlns="http://www.w3.org/2000/svg" xmlns:xlink="http://www.w3.org/1999/xlink" width="110" height="33" viewBox="3 0 110 33">
  <defs>
    <clipPath id="clip-path">
      <rect id="Rectangle_1982" data-name="Rectangle 1982" width="110" height="33" fill="#fff"/>
    </clipPath>
  </defs>
  <g id="bankwire" clip-path="url(#clip-path)">
    <path id="Path_5586" data-name="Path 5586" d="M29,28a1,1,0,0,1-1,1H4a1,1,0,0,1,0-2H28A1,1,0,0,1,29,28Z" fill="#b2bec3"/>
    <path id="Path_5587" data-name="Path 5587" d="M13,25a1,1,0,0,1-1-1V16a1,1,0,0,1,2,0v8A1,1,0,0,1,13,25Z" fill="#b2bec3"/>
    <path id="Path_5588" data-name="Path 5588" d="M7,25a1,1,0,0,1-1-1V16a1,1,0,0,1,2,0v8A1,1,0,0,1,7,25Z" fill="#b2bec3"/>
    <path id="Path_5589" data-name="Path 5589" d="M19,25a1,1,0,0,1-1-1V16a1,1,0,0,1,2,0v8A1,1,0,0,1,19,25Z" fill="#b2bec3"/>
    <path id="Path_5590" data-name="Path 5590" d="M25,25a1,1,0,0,1-1-1V16a1,1,0,0,1,2,0v8A1,1,0,0,1,25,25Z" fill="#b2bec3"/>
    <path id="Path_5591" data-name="Path 5591" d="M4.6,10.007C3.6,10.505,3,11,3,11.56A1.538,1.538,0,0,0,4.6,13H27.5A1.409,1.409,0,0,0,29,11.542,1.691,1.691,0,0,0,28,10L16.9,4.216a1.989,1.989,0,0,0-1.8,0ZM7,11H25.5L16,6.5Z" fill="#b2bec3" fill-rule="evenodd"/>
    <path id="Path_5592" data-name="Path 5592" d="M40.012,14V4.047h3.411a4.165,4.165,0,0,1,2.57.677,2.384,2.384,0,0,1,.882,2.017,2.149,2.149,0,0,1-.369,1.23,2.376,2.376,0,0,1-1.08.848,2.174,2.174,0,0,1,1.244.827,2.371,2.371,0,0,1,.444,1.449,2.645,2.645,0,0,1-.9,2.153,3.894,3.894,0,0,1-2.57.752Zm1.729-4.491v3.11h1.921a1.859,1.859,0,0,0,1.271-.4,1.416,1.416,0,0,0,.458-1.121,1.42,1.42,0,0,0-1.586-1.586Zm0-1.271h1.7a1.959,1.959,0,0,0,1.258-.362,1.259,1.259,0,0,0,.458-1.039,1.265,1.265,0,0,0-.424-1.066,2.107,2.107,0,0,0-1.306-.328H41.741Zm12.674,3.445H50.56L49.753,14h-1.8l3.76-9.953h1.552L57.033,14h-1.8Zm-3.37-1.394H53.93L52.487,6.159ZM66.063,14H64.334L59.9,6.938V14H58.168V4.047H59.9l4.45,7.089V4.047h1.716Zm4.9-4.3-1.128,1.2V14H68.107V4.047h1.729V8.716l.957-1.183,2.912-3.486H75.8L72.1,8.456,76.01,14H73.959ZM47.2,21.441H44.1V30H42.384V21.441H39.308V20.047h7.9Zm4.97,4.724H50.245V30H48.516V20.047h3.5a4.074,4.074,0,0,1,2.659.772,2.731,2.731,0,0,1,.937,2.235,2.8,2.8,0,0,1-.485,1.675,3.052,3.052,0,0,1-1.34,1.032l2.235,4.149V30H54.169Zm-1.928-1.388h1.777a1.986,1.986,0,0,0,1.367-.437,1.548,1.548,0,0,0,.492-1.21,1.63,1.63,0,0,0-.458-1.237,1.918,1.918,0,0,0-1.354-.451H50.245Zm12.578,2.905H58.968L58.161,30h-1.8l3.76-9.953h1.552L65.441,30h-1.8Zm-3.37-1.395h2.885L60.9,22.159ZM74.472,30H72.742l-4.437-7.062V30H66.576V20.047h1.729l4.45,7.089V20.047h1.716Zm7.246-2.563a1.2,1.2,0,0,0-.465-1.012,5.5,5.5,0,0,0-1.661-.718,8.039,8.039,0,0,1-1.914-.807,2.554,2.554,0,0,1-1.36-2.229,2.428,2.428,0,0,1,.978-1.982,3.984,3.984,0,0,1,2.55-.779,4.3,4.3,0,0,1,1.853.383,3.032,3.032,0,0,1,1.278,1.094,2.78,2.78,0,0,1,.465,1.565H81.718a1.543,1.543,0,0,0-.492-1.217,1.994,1.994,0,0,0-1.395-.444,2.123,2.123,0,0,0-1.319.362,1.21,1.21,0,0,0-.465,1.012,1.1,1.1,0,0,0,.506.916,5.963,5.963,0,0,0,1.668.711,7.5,7.5,0,0,1,1.866.786,2.93,2.93,0,0,1,1.032,1.012,2.616,2.616,0,0,1,.328,1.333,2.375,2.375,0,0,1-.957,1.982,4.135,4.135,0,0,1-2.584.731,4.921,4.921,0,0,1-1.989-.4,3.388,3.388,0,0,1-1.408-1.107,2.764,2.764,0,0,1-.5-1.641h1.729A1.61,1.61,0,0,0,78.3,28.3a2.455,2.455,0,0,0,1.606.465,2.132,2.132,0,0,0,1.354-.362A1.186,1.186,0,0,0,81.718,27.437ZM90.7,25.782H86.694V30H84.965V20.047h6.323v1.395H86.694V24.4H90.7Zm7.779-.226H94.392v3.063H99.17V30H92.662V20.047h6.46v1.395h-4.73V24.19h4.088Zm5.756.608h-1.927V30h-1.73V20.047h3.5a4.072,4.072,0,0,1,2.659.772,2.73,2.73,0,0,1,.937,2.235,2.8,2.8,0,0,1-.486,1.675,3.051,3.051,0,0,1-1.339,1.032l2.235,4.149V30h-1.853Zm-1.927-1.388h1.777a1.986,1.986,0,0,0,1.367-.437,1.548,1.548,0,0,0,.492-1.21,1.627,1.627,0,0,0-.458-1.237,1.916,1.916,0,0,0-1.353-.451h-1.825Z" fill="#84949a"/>
  </g>
</svg>
