<svg xmlns="http://www.w3.org/2000/svg" width="13.313" height="16.333" viewBox="0 0 13.313 16.333">
  <g id="Group_2908" data-name="Group 2908" transform="translate(-576.162 -555.5)">
    <path id="Path_5792" data-name="Path 5792" d="M809.418,922.955h.005a.314.314,0,0,0,.309-.319l-.131-8.079a.314.314,0,0,0-.314-.309h-.005a.314.314,0,0,0-.309.319l.131,8.079A.314.314,0,0,0,809.418,922.955Z" transform="translate(-229.154 -353.114)" fill="red"/>
    <path id="Path_5793" data-name="Path 5793" d="M980.814,922.955a.314.314,0,0,0,.314-.314v-8.079a.314.314,0,0,0-.628,0v8.079A.314.314,0,0,0,980.814,922.955Z" transform="translate(-397.988 -353.114)" fill="red"/>
    <path id="Path_5794" data-name="Path 5794" d="M1142.977,922.956h.005a.314.314,0,0,0,.314-.309l.131-8.079a.314.314,0,1,0-.628-.01l-.131,8.079A.314.314,0,0,0,1142.977,922.956Z" transform="translate(-557.609 -353.115)" fill="red"/>
    <path id="Path_5795" data-name="Path 5795" d="M588.5,557.822h-3.21l-.93-2.133a.314.314,0,0,0-.288-.189h-2.513a.314.314,0,0,0-.288.189l-.93,2.133h-3.21a.944.944,0,0,0-.972.95.967.967,0,0,0,.965.965h.086l.159,10.469a1.631,1.631,0,0,0,1.63,1.627h7.633a1.631,1.631,0,0,0,1.63-1.627l.159-10.469h.085a.966.966,0,0,0,.966-.965A.944.944,0,0,0,588.5,557.822Zm-6.736-1.694h2.1l.711,1.631h-3.523Zm5.869,14.071v0a1,1,0,0,1-1,1H579a1,1,0,0,1-1-1v0l-.159-10.464H587.8Zm.873-11.09H577.127a.338.338,0,0,1-.337-.337.316.316,0,0,1,.31-.322h11.437a.316.316,0,0,1,.31.322A.338.338,0,0,1,588.509,559.109Z" fill="red"/>
  </g>
</svg>
