<svg xmlns="http://www.w3.org/2000/svg" xmlns:xlink="http://www.w3.org/1999/xlink" width="26.503" height="24.326" viewBox="0 0 26.503 24.326">
  <defs>
    <clipPath id="clip-path">
      <rect id="Rectangle_2677" data-name="Rectangle 2677" width="26.503" height="24.326" transform="translate(0 0)" fill="#fff"/>
    </clipPath>
  </defs>
  <g id="Group_15737" data-name="Group 15737" transform="translate(0 0.004)">
    <g id="Group_15737-2" data-name="Group 15737" transform="translate(0 -0.004)" clip-path="url(#clip-path)">
      <path id="Path_17855" data-name="Path 17855" d="M.568,13.877a.568.568,0,0,0,0,1.136H5.8l.144,2.423c0,.079.018.155.025.232H5.762A4.734,4.734,0,0,0,1.033,22.4v1.358a.568.568,0,0,0,1.136,0V22.4A3.6,3.6,0,0,1,5.762,18.8H6.18a6.612,6.612,0,0,0,6.36,4.842h1.423a6.612,6.612,0,0,0,6.36-4.842h.417A3.6,3.6,0,0,1,24.334,22.4v1.358a.568.568,0,1,0,1.136,0V22.4a4.734,4.734,0,0,0-4.729-4.729H20.53c.007-.078.021-.154.025-.232l.144-2.423h5.236a.568.568,0,0,0,0-1.136H20.767l.141-2.362A4.731,4.731,0,0,0,25.47,6.8V4.771a.568.568,0,1,0-1.136,0V6.8a3.6,3.6,0,0,1-3.358,3.581l.01-.169a5.655,5.655,0,0,0-4.821-5.936L17.672.791A.568.568,0,1,0,16.63.34L14.957,4.2h-3.41L9.873.34A.568.568,0,1,0,8.831.791l1.507,3.48a5.655,5.655,0,0,0-4.821,5.936l.01.169A3.6,3.6,0,0,1,2.169,6.8V4.771a.568.568,0,0,0-1.136,0V6.8A4.731,4.731,0,0,0,5.6,11.516l.141,2.362Zm6.514,3.492-.419-7.036h6.021V22.511H12.54a5.474,5.474,0,0,1-5.458-5.142m6.881,5.142H13.82V10.332h6.021l-.419,7.036a5.474,5.474,0,0,1-5.458,5.142M7.876,6.763a4.487,4.487,0,0,1,3.3-1.424h4.158A4.535,4.535,0,0,1,19.812,9.2H6.692A4.486,4.486,0,0,1,7.876,6.763" transform="translate(0 0.003)" fill="#fff"/>
    </g>
  </g>
</svg>
