<svg xmlns="http://www.w3.org/2000/svg" width="20.738" height="27.51" viewBox="0 0 20.738 27.51"><defs><style>.a{fill:#fff;}</style></defs><path class="a" d="M484.938,165.865l2.763-1.043a3.008,3.008,0,0,1,3.82,1.679l1.332,3.316a2.981,2.981,0,0,1-1.742,3.912l-.481.176-.1.031a1.014,1.014,0,0,0-.577.312.51.51,0,0,0-.011.255,27.2,27.2,0,0,0,1.73,3.568l.7,1.217a27.156,27.156,0,0,0,2.2,3.249.5.5,0,0,0,.252.151c.089.006.288-.082.605-.384l.424-.356a2.98,2.98,0,0,1,4.257.446l2.207,2.811a3,3,0,0,1-.455,4.148l-2.286,1.872a4.081,4.081,0,0,1-3.625.785,6.48,6.48,0,0,1-2.12-.989,26.683,26.683,0,0,1-7.321-8.347l-.7-1.217a26.661,26.661,0,0,1-3.568-10.513,6.455,6.455,0,0,1,.2-2.332h0A4.082,4.082,0,0,1,484.938,165.865Zm6.21,4.636-1.332-3.317a1.133,1.133,0,0,0-1.321-.669l2.171,5.372a1.116,1.116,0,0,0,.464-.494A1.133,1.133,0,0,0,491.148,170.5Zm9.817,15.97a1.184,1.184,0,0,0-.089-.132l-2.208-2.812a1.136,1.136,0,0,0-.781-.432,1.122,1.122,0,0,0-.66.155l3.569,4.568A1.143,1.143,0,0,0,500.965,186.471Zm-16.746-17.382a4.635,4.635,0,0,0-.148,1.671,24.826,24.826,0,0,0,3.331,9.777l.7,1.217a24.834,24.834,0,0,0,6.8,7.773,4.631,4.631,0,0,0,1.521.706,2.237,2.237,0,0,0,1.989-.431l.976-.8-3.66-4.685a2.12,2.12,0,0,1-1.01.2,2.292,2.292,0,0,1-1.561-.815,28.962,28.962,0,0,1-2.372-3.5l-.7-1.217a29.044,29.044,0,0,1-1.861-3.849,2.294,2.294,0,0,1,.092-1.716,2.134,2.134,0,0,1,.68-.773l-2.227-5.512-1.18.445A2.241,2.241,0,0,0,484.219,169.089Z" transform="translate(-482.212 -164.634)"/></svg>