<svg xmlns="http://www.w3.org/2000/svg" width="27.913" height="22.031" viewBox="0 0 27.913 22.031"><defs><style>.a{fill:#fff;}</style></defs><path class="a" d="M1472.747,622.146a13.359,13.359,0,0,0-15.779,0,9.83,9.83,0,0,0-1.538,1.5l-.222.272.348-.048.021,0a12.6,12.6,0,0,1,1.335-.107l.054,0,.039-.038a11.262,11.262,0,0,1,7.852-2.943c5.526,0,10.022,3.479,10.022,7.755a7.4,7.4,0,0,1-4.049,6.221c-.2.116-.41.228-.624.333a.619.619,0,0,0-.346.581l.1,2.271-2.1-1.759a.621.621,0,0,0-.522-.132c-.317.063-.645.114-.975.153l-.163.017-.119.012-.036.052a8.3,8.3,0,0,1-.8.968l-.243.252.34-.011a14,14,0,0,0,1.956-.2l3.463,2.9a.3.3,0,0,0,.192.071.3.3,0,0,0,.134-.032.3.3,0,0,0,.168-.283l-.165-3.948a11.256,11.256,0,0,0,1.661-1.08,7.773,7.773,0,0,0,0-12.775Z" transform="translate(-1448.177 -619.568)"/><path class="a" d="M1404.646,680.216a6,6,0,0,0,.545-2.5,6.6,6.6,0,0,0-2.714-5.192,10.311,10.311,0,0,0-6.37-2.083,11.556,11.556,0,0,0-1.542.1,11.111,11.111,0,0,0-1.223.237,9.611,9.611,0,0,0-3.6,1.742,6.323,6.323,0,0,0,0,10.384,9.053,9.053,0,0,0,1.275.837l-.131,3.127a.335.335,0,0,0,.189.318.343.343,0,0,0,.151.036.336.336,0,0,0,.216-.08l2.761-2.315a11.4,11.4,0,0,0,1.908.16,10.375,10.375,0,0,0,6.219-1.967c.051-.038.1-.077.151-.116a8.132,8.132,0,0,0,.848-.768,7.1,7.1,0,0,0,.852-1.072A6.36,6.36,0,0,0,1404.646,680.216Zm-2.764,1.616a7.574,7.574,0,0,1-1.078.747,9.425,9.425,0,0,1-4.7,1.2c-.328,0-.653-.016-.966-.046a9.835,9.835,0,0,1-1.1-.166.37.37,0,0,0-.316.079l-1.552,1.3.071-1.694a.373.373,0,0,0-.216-.354,8.418,8.418,0,0,1-.76-.4,5.676,5.676,0,0,1-3.035-4.78c0-2.414,1.862-4.6,4.744-5.563a9.343,9.343,0,0,1,1.089-.293,10.007,10.007,0,0,1,2.04-.207c4.341,0,7.873,2.72,7.873,6.064a5.373,5.373,0,0,1-2.1,4.115Z" transform="translate(-1387.024 -665.196)"/></svg>