<svg xmlns="http://www.w3.org/2000/svg" xmlns:xlink="http://www.w3.org/1999/xlink" width="26.646" height="31.087" viewBox="0 0 26.646 31.087">
  <defs>
    <clipPath id="clip-path">
      <rect id="Rectangle_2127" data-name="Rectangle 2127" width="26.646" height="31.087" fill="#fff"/>
    </clipPath>
  </defs>
  <g id="Group_3035" data-name="Group 3035" clip-path="url(#clip-path)">
    <path id="Path_5869" data-name="Path 5869" d="M25.466,6.592A4.044,4.044,0,0,1,26.3,7.91a4.008,4.008,0,0,1,.347,1.527V29.421a1.658,1.658,0,0,1-1.665,1.665H1.665A1.606,1.606,0,0,1,.486,30.6,1.606,1.606,0,0,1,0,29.421V1.665A1.606,1.606,0,0,1,.486.486,1.606,1.606,0,0,1,1.665,0H17.209a4.007,4.007,0,0,1,1.527.347,4.044,4.044,0,0,1,1.318.833ZM24.425,28.866V11.1H17.209a1.658,1.658,0,0,1-1.665-1.665V2.22H2.22V28.866ZM15.509,18.579a13.173,13.173,0,0,0,1.457.971A17.263,17.263,0,0,1,19,19.429q2.55,0,3.07.85a.839.839,0,0,1,.035.9.05.05,0,0,1-.017.035l-.035.035v.017q-.1.66-1.232.659a7.15,7.15,0,0,1-1.995-.347,12.642,12.642,0,0,1-2.255-.919,31.238,31.238,0,0,0-6.8,1.44q-2.654,4.545-4.2,4.545a1.007,1.007,0,0,1-.486-.121l-.416-.208q-.018-.017-.1-.087a.716.716,0,0,1-.1-.624,3.767,3.767,0,0,1,.971-1.587,8.384,8.384,0,0,1,2.29-1.674.253.253,0,0,1,.4.1.1.1,0,0,1,.035.069q.9-1.474,1.856-3.417a26.472,26.472,0,0,0,1.8-4.545,14.011,14.011,0,0,1-.529-2.767A6.737,6.737,0,0,1,11.4,9.576q.191-.694.729-.694h.382a.731.731,0,0,1,.607.26,1.386,1.386,0,0,1,.156,1.18.38.38,0,0,1-.069.139.458.458,0,0,1,.017.139v.52a22.739,22.739,0,0,1-.243,3.331,8.773,8.773,0,0,0,2.533,4.129m-9.992,7.13a7.66,7.66,0,0,0,2.377-2.741,9.891,9.891,0,0,0-1.518,1.457,5.758,5.758,0,0,0-.859,1.284m4.753-4.493A25.445,25.445,0,0,1,15.2,19.811a2.512,2.512,0,0,1-.226-.165,3.018,3.018,0,0,1-.278-.234,9.185,9.185,0,0,1-2.2-3.053,23.187,23.187,0,0,1-1.44,3.417q-.52.972-.781,1.44M12.421,9.749a5.158,5.158,0,0,0-.035,2.29q.017-.121.121-.763,0-.052.121-.746a.392.392,0,0,1,.069-.139.049.049,0,0,1-.017-.035.036.036,0,0,0-.009-.026.034.034,0,0,1-.009-.026,1,1,0,0,0-.225-.624.05.05,0,0,1-.017.035Zm5.343-7.39V8.882h6.523a1.9,1.9,0,0,0-.382-.711l-5.43-5.43a1.9,1.9,0,0,0-.711-.382m3.712,18.579a4.152,4.152,0,0,0-2.429-.416,6.557,6.557,0,0,0,2.151.486,1.681,1.681,0,0,0,.312-.017c0-.011-.012-.029-.035-.052" fill="#fff"/>
  </g>
</svg>
