<svg xmlns="http://www.w3.org/2000/svg" width="21" height="21" viewBox="0 0 21 21">
  <g id="Group_17921" data-name="Group 17921" transform="translate(-40 -64)">
    <g id="Group_17920" data-name="Group 17920" transform="translate(20)">
      <ellipse id="Ellipse_330" data-name="Ellipse 330" cx="10.5" cy="10.5" rx="10.5" ry="10.5" transform="translate(20 64)" fill="#50b848"/>
      <g id="dark_icon" data-name="dark icon" transform="translate(-3570.211 -742.993)">
        <g id="Group_2814" data-name="Group 2814" transform="translate(3595.26 812.093)">
          <path id="Path_5765" data-name="Path 5765" d="M3600.944,840.463a5.684,5.684,0,0,1-.392-11.354.284.284,0,0,1,.243.457,4.812,4.812,0,0,0-1.025,2.983,4.857,4.857,0,0,0,5.723,4.782.284.284,0,0,1,.291.428A5.653,5.653,0,0,1,3600.944,840.463Zm-.965-10.709a5.117,5.117,0,1,0,4.968,8.213c-.106.006-.212.01-.316.01a5.433,5.433,0,0,1-5.427-5.427A5.364,5.364,0,0,1,3599.979,829.754Z" transform="translate(-3595.26 -829.108)"/>
        </g>
        <g id="Group_2815" data-name="Group 2815" transform="translate(3604.223 812.569)">
          <path id="Path_5766" data-name="Path 5766" d="M3880.431,847.128a.283.283,0,0,1-.275-.213,1.364,1.364,0,0,0-.978-.981.281.281,0,0,1-.159-.079l0,0a.283.283,0,0,1,.134-.476,1.363,1.363,0,0,0,1-1,.284.284,0,0,1,.551,0,1.363,1.363,0,0,0,1,1,.284.284,0,0,1,0,.551,1.364,1.364,0,0,0-1,.991.283.283,0,0,1-.274.215Zm-.522-1.48a1.931,1.931,0,0,1,.292.24,1.964,1.964,0,0,1,.229.276,1.943,1.943,0,0,1,.233-.283.239.239,0,1,0,0-.469.239.239,0,1,0-.469,0A1.926,1.926,0,0,1,3879.909,845.648Z" transform="translate(-3878.932 -844.156)"/>
        </g>
        <g id="Group_2816" data-name="Group 2816" transform="translate(3602.852 811.538)">
          <path id="Path_5767" data-name="Path 5767" d="M3836.353,813.148a.283.283,0,0,1-.275-.214.431.431,0,0,0-.3-.308.282.282,0,0,1-.149-.078.285.285,0,0,1,.132-.478.431.431,0,0,0,.317-.316.283.283,0,0,1,.275-.216h0a.284.284,0,0,1,.275.216.43.43,0,0,0,.316.316.284.284,0,0,1,0,.551.43.43,0,0,0-.315.313.284.284,0,0,1-.274.215Z" transform="translate(-3835.543 -811.538)"/>
        </g>
      </g>
    </g>
  </g>
</svg>
