<svg xmlns="http://www.w3.org/2000/svg" width="51.74" height="57.761" viewBox="0 0 51.74 57.761">
  <g id="Group_15599" data-name="Group 15599" transform="translate(-327.955 -71.261)">
    <g id="Group_15597" data-name="Group 15597" transform="translate(327.955 80.097)">
      <g id="Group_15592" data-name="Group 15592" transform="translate(0 0)">
        <path id="Path_17785" data-name="Path 17785" d="M363.941,145.246H332.05a3.984,3.984,0,0,1-4.1-3.852V108.912a1.058,1.058,0,1,1,2.116,0v32.482a1.873,1.873,0,0,0,1.98,1.737h31.891a1.872,1.872,0,0,0,1.979-1.737V100.174a1.873,1.873,0,0,0-1.979-1.738h-23.4a1.058,1.058,0,0,1,0-2.116h23.4a3.984,3.984,0,0,1,4.1,3.853v41.219A3.984,3.984,0,0,1,363.941,145.246Z" transform="translate(-327.955 -96.321)" fill="#50b848"/>
      </g>
      <g id="Group_15593" data-name="Group 15593" transform="translate(0)">
        <path id="Path_17786" data-name="Path 17786" d="M337.508,109.969h-8.495a1.058,1.058,0,0,1-.748-1.806L339.8,96.631a1.058,1.058,0,0,1,1.806.748v8.738A3.984,3.984,0,0,1,337.508,109.969Zm-5.941-2.116h5.941a1.872,1.872,0,0,0,1.979-1.738V99.933Z" transform="translate(-327.955 -96.321)" fill="#50b848"/>
      </g>
      <g id="Group_15594" data-name="Group 15594" transform="translate(8.869 19.473)">
        <path id="Path_17787" data-name="Path 17787" d="M375.587,153.664h-21.42a1.058,1.058,0,1,1,0-2.116h21.42a1.058,1.058,0,1,1,0,2.116Z" transform="translate(-353.109 -151.548)" fill="#50b848"/>
      </g>
      <g id="Group_15595" data-name="Group 15595" transform="translate(8.869 25.162)">
        <path id="Path_17788" data-name="Path 17788" d="M375.587,169.8h-21.42a1.058,1.058,0,1,1,0-2.116h21.42a1.058,1.058,0,1,1,0,2.116Z" transform="translate(-353.109 -167.685)" fill="#50b848"/>
      </g>
      <g id="Group_15596" data-name="Group 15596" transform="translate(8.869 30.852)">
        <path id="Path_17789" data-name="Path 17789" d="M375.587,185.937h-21.42a1.058,1.058,0,1,1,0-2.116h21.42a1.058,1.058,0,1,1,0,2.116Z" transform="translate(-353.109 -183.821)" fill="#50b848"/>
      </g>
    </g>
    <g id="Group_15598" data-name="Group 15598" transform="translate(341.482 71.261)">
      <path id="Path_17790" data-name="Path 17790" d="M400.585,117.882h-4.709a1.058,1.058,0,1,1,0-2.116h4.709a1.729,1.729,0,0,0,1.83-1.6V74.976a1.729,1.729,0,0,0-1.83-1.6H370.264a1.728,1.728,0,0,0-1.83,1.6v1.759a1.058,1.058,0,1,1-2.116,0V74.976a3.84,3.84,0,0,1,3.946-3.715h30.322a3.84,3.84,0,0,1,3.946,3.715v39.191A3.84,3.84,0,0,1,400.585,117.882Z" transform="translate(-366.318 -71.261)" fill="#50b848"/>
    </g>
  </g>
</svg>
