<svg xmlns="http://www.w3.org/2000/svg" width="23.503" height="15.241" viewBox="0 0 23.503 15.241"><defs><style>.a{fill:#fff;}</style></defs><path class="a" d="M351.658,174.824h-19a2.122,2.122,0,0,0-2.238,2.106c0-.152-.029.144,0,0-.03.145,0-.153,0,0l0,11.014c0,.136-.024-.129,0,0-.023-.129,0,.135,0,0a2.136,2.136,0,0,0,2.24,2.121h19a2.255,2.255,0,0,0,2.253-2.253V177.077A2.255,2.255,0,0,0,351.658,174.824Zm.741,12.931-5.667-5.667,5.484-5.484a.739.739,0,0,1,.184.477Zm-19.177.808,5.413-5.414,1.925,1.925a2.311,2.311,0,0,0,3.185,0l1.924-1.925,5.413,5.414Zm17.143-12.233-7.682,7.682a.756.756,0,0,1-1.062,0l-7.682-7.682Zm-18.457.747a.614.614,0,0,1,.182-.473l5.483,5.484-5.665,5.666Z" transform="translate(-330.407 -174.824)"/></svg>