<svg xmlns="http://www.w3.org/2000/svg" xmlns:xlink="http://www.w3.org/1999/xlink" width="17" height="17" viewBox="0 0 17 17"><defs><style>.a{fill:none;}.b{clip-path:url(#a);}.c{fill:#fff;}</style><clipPath id="a"><rect class="a" width="17" height="17"/></clipPath></defs><g class="b"><rect class="a" width="17" height="17" transform="translate(0 0)"/><path class="c" d="M8.3,0a8.3,8.3,0,1,0,8.3,8.3A8.32,8.32,0,0,0,8.3,0ZM8.212,13.77a1.161,1.161,0,1,1,1.161-1.161A1.134,1.134,0,0,1,8.212,13.77Zm2.24-6.47-.912,1a1.013,1.013,0,0,0-.332.747,1.009,1.009,0,0,1-1,1,.958.958,0,0,1-1-1A1.851,1.851,0,0,1,7.88,7.549l.747-.912a1.883,1.883,0,0,0,.581-1.161A.87.87,0,0,0,8.3,4.562a.976.976,0,0,0-1,.747,1.083,1.083,0,0,1-1,.581.87.87,0,0,1-.912-.912.9.9,0,0,1,.083-.415A2.765,2.765,0,0,1,8.3,2.82a2.688,2.688,0,0,1,2.9,2.654A2.721,2.721,0,0,1,10.452,7.3Z"/></g></svg>