<svg xmlns="http://www.w3.org/2000/svg" width="140.109" height="184.476" viewBox="0 0 140.109 184.476"><defs><style>.a{fill:#50b848;}</style></defs><g transform="translate(-321.73 -265.28)"><path class="a" d="M446.572,334.649V316.366a51.146,51.146,0,0,0-51.09-51.086h-7.4A51.146,51.146,0,0,0,337,316.366v18.283a15.968,15.968,0,0,0-15.267,15.933V433.8a15.969,15.969,0,0,0,15.951,15.951H445.889A15.969,15.969,0,0,0,461.839,433.8V350.582A15.969,15.969,0,0,0,446.572,334.649ZM344.856,316.366a43.278,43.278,0,0,1,43.231-43.227h7.4a43.278,43.278,0,0,1,43.231,43.227v18.265h-6.936V316.366a36.334,36.334,0,0,0-36.295-36.291h-7.4a36.334,36.334,0,0,0-36.295,36.291v18.265h-6.936Zm79.062,0v18.265H359.652V316.366a28.465,28.465,0,0,1,28.435-28.431h7.4A28.465,28.465,0,0,1,423.918,316.366ZM453.98,433.8a8.1,8.1,0,0,1-8.091,8.091H337.681a8.1,8.1,0,0,1-8.091-8.091V350.582a8.1,8.1,0,0,1,8.091-8.091H445.889a8.1,8.1,0,0,1,8.091,8.091Z"/><path class="a" d="M476.712,517.911a15.074,15.074,0,0,0-7.4,28.205,7.543,7.543,0,0,0-.133,1.388v15.912a7.538,7.538,0,1,0,15.076,0V547.5a7.545,7.545,0,0,0-.133-1.388,15.074,15.074,0,0,0-7.4-28.205Z" transform="translate(-84.928 -153.355)"/></g></svg>