<svg id="paysafe" xmlns="http://www.w3.org/2000/svg" width="100.785" height="36" viewBox="0 0 100.785 36">
  <path id="Path_5497" data-name="Path 5497" d="M81.393,22.829a4.741,4.741,0,0,0-4.784,4.95c0,2.946,1.974,4.83,5.125,4.83a7.527,7.527,0,0,0,3.957-1.042l-.847-1.824a5.594,5.594,0,0,1-2.653.719h-.26a.619.619,0,0,1-.195-.021h-.043l-.154-.026h-.054a.618.618,0,0,1-.151-.039l-.081-.023-.105-.039a.9.9,0,0,1-.116-.047l-.035-.016a1.573,1.573,0,0,1-.176-.091,1.938,1.938,0,0,1-.341-.26c-.043-.039-.081-.081-.119-.122l-.043-.047a.914.914,0,0,1-.062-.081,1.309,1.309,0,0,1-.1-.141,2.742,2.742,0,0,1-.368-1.183h6.3V27.6A4.573,4.573,0,0,0,81.4,22.855Zm-1.612,3.96c.114-1.245.779-1.883,1.623-1.883s1.5.638,1.623,1.883ZM90.023,28.8a2.032,2.032,0,0,0-1.1.321,1.922,1.922,0,0,0-.728.855,1.84,1.84,0,0,0-.113,1.1,1.884,1.884,0,0,0,.541.975,2,2,0,0,0,1.012.521,2.047,2.047,0,0,0,1.142-.108,1.963,1.963,0,0,0,.887-.7,1.851,1.851,0,0,0-.246-2.4A2.016,2.016,0,0,0,90.023,28.8Zm0-2.154a2.031,2.031,0,0,0,1.1-.321,1.921,1.921,0,0,0,.728-.855,1.839,1.839,0,0,0,.112-1.1,1.884,1.884,0,0,0-.541-.975,2,2,0,0,0-1.012-.521,2.048,2.048,0,0,0-1.142.108,1.963,1.963,0,0,0-.887.7A1.844,1.844,0,0,0,88.2,25.47a1.9,1.9,0,0,0,.428.618,1.985,1.985,0,0,0,.641.413A2.043,2.043,0,0,0,90.023,26.646Zm-41.2-3.6-2.088,5.577-2.4-5.577h-3.11l4.1,8.893L44.047,35h2.891l4.906-11.952Zm6.142,2.626c0-.44.457-.714,1.217-.714a6.093,6.093,0,0,1,2.239.521l.855-1.891a7.855,7.855,0,0,0-3.245-.75c-2.261,0-4.084.987-4.084,2.965,0,3.11,4.557,2.542,4.557,3.907,0,.521-.541.781-1.423.781a5.805,5.805,0,0,1-2.469-.623l-.968,1.886a8.242,8.242,0,0,0,3.7.86c2.2,0,4.1-1.1,4.1-3.11,0-3.074-4.482-2.563-4.482-3.806ZM28.031,19.753H23V32.382h3.113V27.758h1.918c2.526,0,4.435-1.506,4.435-4.087,0-2.232-1.425-3.907-4.425-3.907Zm-.341,5.82H26.113V21.951H27.69a1.658,1.658,0,0,1,1.744,1.823,1.633,1.633,0,0,1-1.744,1.792Zm9.737-2.748a8.4,8.4,0,0,0-4.273,1.115l.836,1.667a7.571,7.571,0,0,1,2.7-.659c.7,0,1.328.237,1.328.951v.623c-4.2-.281-5.407,1.5-5.407,3.134A3.1,3.1,0,0,0,35.874,32.6a4.316,4.316,0,0,0,2.131-.633v.414h3.037v-6.5c0-2.1-1.385-3.056-3.624-3.056Zm.692,7.508a2.143,2.143,0,0,1-1.2.367,1.12,1.12,0,0,1-1.271-1.1c0-.768.627-1.521,2.467-1.227Zm33.145-7.669v.385H69.641v2h1.623v7.338h3.018V25.044H76.37v-2H74.282v-.5c0-.823.344-1.409,1.274-1.409a3.361,3.361,0,0,1,.89.13V19.185A5.49,5.49,0,0,0,75,19a3.382,3.382,0,0,0-3.74,3.647Zm-6.11.167a8.393,8.393,0,0,0-4.271,1.115l.836,1.667a7.555,7.555,0,0,1,2.7-.659c.7,0,1.331.237,1.331.951v.623c-4.187-.286-5.39,1.487-5.39,3.126A3.094,3.094,0,0,0,63.61,32.6a4.333,4.333,0,0,0,2.123-.63v.414H68.77v-6.5c0-2.1-1.388-3.056-3.627-3.056Zm.579,7.5a2.154,2.154,0,0,1-1.2.367,1.121,1.121,0,0,1-1.271-1.1c0-.768.627-1.521,2.469-1.227Z" fill="#84949a"/>
  <path id="Path_5498" data-name="Path 5498" d="M88.56,7.419A4.028,4.028,0,0,1,86.171,8H85.11l.813-4.563h.78a3.536,3.536,0,0,1,1.983.45,1.8,1.8,0,0,1,.763,1.591A2.25,2.25,0,0,1,88.56,7.419ZM25.286,13.145H17.078l.531-2.982h5.149L23.342,6.8h-5.1l.493-2.952H26.93Zm67.7-11.853A9.4,9.4,0,0,0,87.555,0H81.284L78.952,13.145H70.738l.527-2.982h4.949l.588-3.35-4.946.009.53-2.97h5.1L78.16,0H67.807l-2.213,12.47H61.8L64.027,0H58.614L56.4,12.471H52.7L54.931,0H49.524L47.187,13.146H38.914l.521-2.982h4.972l.585-3.33-4.964,0,.527-2.975h5.153L46.383,0H14.129L12.293,10.418,8.635,0H3.021L0,17H5.361L7.189,6.3,10.739,17H29.954L32.29,3.853H35.3L32.959,17h50.56l1.464-8.3L87.358,17h5.364l-2.457-6.782.561-.126A4.776,4.776,0,0,0,93.7,8.338a5.569,5.569,0,0,0,1.014-3.427A4.114,4.114,0,0,0,92.982,1.292Z" fill="#8dc640"/>
  <path id="Path_5499" data-name="Path 5499" d="M97.55,14.447l.74-.035a1.187,1.187,0,0,0,.367-.062.378.378,0,0,0,.194-.152.353.353,0,0,0,.057-.215.349.349,0,0,0-.15-.272.684.684,0,0,0-.431-.088l-.824.038Zm-.274,1.339-.133-2.372,1.158-.053a1.665,1.665,0,0,1,.532.04.572.572,0,0,1,.3.212.615.615,0,0,1,.128.351.56.56,0,0,1-.155.434.944.944,0,0,1-.542.245.971.971,0,0,1,.214.108,1.675,1.675,0,0,1,.3.3l.487.625-.43.02-.373-.477q-.163-.207-.267-.316a.763.763,0,0,0-.184-.15.561.561,0,0,0-.16-.057,1.181,1.181,0,0,0-.193,0l-.4.018.057,1.054Z" fill="#8dc640"/>
  <path id="Path_5500" data-name="Path 5500" d="M96.343,14.674a2.016,2.016,0,0,1,4.026-.206c0,.034,0,.07,0,.1a2.016,2.016,0,0,1-4.03.1Zm1.889-2.528a2.429,2.429,0,1,0,2.55,2.3h0A2.431,2.431,0,0,0,98.232,12.146Z" fill="#8dc640"/>
  <path id="Path_5501" data-name="Path 5501" d="M5.34,32.8a3.1,3.1,0,0,1-2.6-1.191v.569a.489.489,0,0,1-.118.32.4.4,0,0,1-.3.124H.42a.434.434,0,0,1-.3-.124A.489.489,0,0,1,0,32.178V20.444a.447.447,0,0,1,.118-.32A.434.434,0,0,1,.42,20H2.469a.4.4,0,0,1,.3.124.447.447,0,0,1,.118.32v3.8A3.138,3.138,0,0,1,5.34,23.2,3.177,3.177,0,0,1,7.91,24.32a4.855,4.855,0,0,1,1.008,3.04q.017.231.017.64,0,.391-.017.622A5.026,5.026,0,0,1,7.91,31.716,3.193,3.193,0,0,1,5.34,32.8Zm-.907-2.382a1.257,1.257,0,0,0,1.125-.5,2.6,2.6,0,0,0,.4-1.369Q6,28.2,6,28t-.034-.551a2.6,2.6,0,0,0-.4-1.369,1.257,1.257,0,0,0-1.125-.5,1.359,1.359,0,0,0-1.125.48,2.022,2.022,0,0,0-.42,1.209l-.017.658.017.676a2.578,2.578,0,0,0,.4,1.316A1.329,1.329,0,0,0,4.433,30.418Z" fill="#84949a"/>
  <path id="Path_5502" data-name="Path 5502" d="M11.846,36a.332.332,0,0,1-.252-.107.373.373,0,0,1-.1-.267.535.535,0,0,1,.05-.231l1.31-3.342L9.629,23.982a.714.714,0,0,1-.05-.213.541.541,0,0,1,.134-.267.312.312,0,0,1,.252-.124H11.88a.492.492,0,0,1,.487.373l1.915,5.173,1.965-5.173a.54.54,0,0,1,.5-.373h1.881a.311.311,0,0,1,.252.124.327.327,0,0,1,.118.249.888.888,0,0,1-.05.231L14.2,35.627a.5.5,0,0,1-.5.373Z" fill="#84949a"/>
</svg>
