<svg xmlns="http://www.w3.org/2000/svg" width="35.76" height="34.854" viewBox="0 0 35.76 34.854"><defs><style>.a{fill:#002941;}</style></defs><path className="a" d="M15.2,4.982,16.976,3.21a1.908,1.908,0,0,1,2.706,0L35.2,18.717a1.908,1.908,0,0,1,0,2.706L19.682,36.938a1.908,1.908,0,0,1-2.706,0L15.2,35.167a1.918,1.918,0,0,1,.032-2.738l9.617-9.162H1.915A1.911,1.911,0,0,1,0,21.351V18.8a1.911,1.911,0,0,1,1.915-1.915H24.853L15.236,7.719A1.9,1.9,0,0,1,15.2,4.982Z" transform="translate(0 -2.647)"/></svg>