<svg xmlns="http://www.w3.org/2000/svg" width="19.282" height="19.282" viewBox="0 0 19.282 19.282">
  <path id="settings" d="M127.348,116.729c-.341-.109-.828-.252-1.38-.376a.73.73,0,0,1-.244-.1l-.052-.036a.7.7,0,0,1-.257-.352,7.516,7.516,0,0,0-.438-1.062.7.7,0,0,1-.066-.43q.013-.079.034-.158a.744.744,0,0,1,.091-.208c.291-.463.526-.893.686-1.2a.726.726,0,0,0-.131-.847l-.187-.187-.747-.747-.187-.187a.725.725,0,0,0-.846-.132c-.318.164-.764.408-1.242.71a.729.729,0,0,1-.245.1l-.062.011a.7.7,0,0,1-.431-.067,7.526,7.526,0,0,0-1.061-.441.7.7,0,0,1-.35-.257q-.046-.065-.087-.135a.745.745,0,0,1-.083-.211c-.121-.533-.259-1-.365-1.335a.726.726,0,0,0-.692-.506H117.42a.725.725,0,0,0-.691.5c-.109.341-.252.828-.376,1.38a.731.731,0,0,1-.1.244l-.036.052a.7.7,0,0,1-.352.257,7.516,7.516,0,0,0-1.062.438.7.7,0,0,1-.43.066q-.079-.013-.158-.034a.746.746,0,0,1-.208-.091c-.463-.291-.893-.526-1.2-.686a.727.727,0,0,0-.847.131l-.187.187-.747.747-.187.187a.725.725,0,0,0-.132.846c.164.318.408.764.71,1.242a.729.729,0,0,1,.1.245q.006.031.011.062a.7.7,0,0,1-.067.431,7.525,7.525,0,0,0-.441,1.061.7.7,0,0,1-.257.35q-.065.046-.135.087a.745.745,0,0,1-.211.083c-.533.121-1,.259-1.335.365a.727.727,0,0,0-.506.692v1.585a.725.725,0,0,0,.5.691c.341.109.828.252,1.38.376a.73.73,0,0,1,.244.1l.052.036a.7.7,0,0,1,.257.352,7.516,7.516,0,0,0,.438,1.062.7.7,0,0,1,.066.43q-.013.079-.034.158a.748.748,0,0,1-.091.208c-.291.463-.526.893-.686,1.2a.726.726,0,0,0,.131.847l.187.187.747.747.187.187a.725.725,0,0,0,.846.132c.318-.164.764-.408,1.242-.71a.729.729,0,0,1,.245-.1l.062-.011a.7.7,0,0,1,.431.067,7.526,7.526,0,0,0,1.061.441.7.7,0,0,1,.35.257q.046.065.087.135a.745.745,0,0,1,.083.211c.121.533.259,1,.365,1.335a.727.727,0,0,0,.692.506H119a.725.725,0,0,0,.691-.5c.109-.341.252-.828.376-1.38a.731.731,0,0,1,.1-.244l.036-.052a.7.7,0,0,1,.352-.257,7.518,7.518,0,0,0,1.062-.438.7.7,0,0,1,.43-.066q.079.013.158.034a.747.747,0,0,1,.208.091c.463.291.893.526,1.2.686a.726.726,0,0,0,.847-.131l.187-.187.747-.747.187-.187a.725.725,0,0,0,.132-.846c-.164-.318-.408-.764-.71-1.242a.729.729,0,0,1-.1-.245q-.006-.031-.011-.062a.7.7,0,0,1,.067-.431,7.526,7.526,0,0,0,.441-1.061.7.7,0,0,1,.257-.35q.065-.046.135-.087a.746.746,0,0,1,.211-.083c.533-.121,1-.259,1.335-.365a.727.727,0,0,0,.506-.692V117.42A.725.725,0,0,0,127.348,116.729Zm-9.137,5.864a4.38,4.38,0,1,1,4.38-4.38A4.38,4.38,0,0,1,118.212,122.593Z" transform="translate(-108.571 -108.572)" fill="#787878"/>
</svg>
