<svg xmlns="http://www.w3.org/2000/svg" width="75.833" height="26" viewBox="0 0 75.833 26">
  <path id="skrill" d="M54.472,6.247a3.126,3.126,0,0,0,2.2-5.332,3.118,3.118,0,0,0-4.4,4.417A3.106,3.106,0,0,0,54.472,6.247ZM30.633,7.932a22.112,22.112,0,0,1-3.581,6.191V1.421L20.541,2.728v23h6.511V18.622a24.742,24.742,0,0,1,2.819,7.116h7.813c-.771-3.221-4.147-9.148-4.147-9.148a28.724,28.724,0,0,0,4.557-8.645Zm17.126-.242c-5.834.189-8.789,2.816-8.789,8.037v10h6.364V17.564c0-3.127.407-4.466,4.105-4.6V7.782a8.8,8.8,0,0,0-1.673-.091ZM9.6,10.455C8.8,10.4,6.95,10.282,6.95,8.612,6.95,6.6,9.61,6.6,10.606,6.6a21.919,21.919,0,0,1,5.648,1.006s.905.327,1.677.653l.072.02V2.77l-.1-.029A22.52,22.52,0,0,0,9.636,1.434C2.523,1.421,0,5.58,0,9.148,0,11.2.879,16.038,9.027,16.6c.69.042,2.523.15,2.523,1.872,0,1.424-1.5,2.264-4.027,2.264A19.75,19.75,0,0,1,.446,19.351v5.681A32.907,32.907,0,0,0,8.861,26c6.957,0,10.075-3.921,10.075-7.841C18.933,13.722,15.447,10.86,9.6,10.455ZM51.314,25.732H57.62V7.952H51.3Zm18.2-23.177V25.732h6.315V1.421Zm-9.213,0,6.309-1.134v24.31H60.3V2.555Z" fill="#842164"/>
</svg>
