<svg xmlns="http://www.w3.org/2000/svg" width="116.34" height="46.982" viewBox="0 0 116.34 46.982"><defs><style>.a{fill:#2a6e94;}.a,.b{fill-rule:evenodd;}.b{fill:#d5e05b;}</style></defs><g transform="translate(-64.899 -133.609)"><g transform="translate(64.899 145.427)"><path class="a" d="M71.883,170.419h2.936c-.455,1.215-.842,2.463-1.21,3.7q-1.207,4.045-2.375,8.1a23.143,23.143,0,0,0-.922,7.118H67.066a2.124,2.124,0,0,1-2.161-2.23,42.193,42.193,0,0,1,1.137-7.226,48.064,48.064,0,0,1,2.543-7.228A4,4,0,0,1,71.883,170.419Z" transform="translate(-64.899 -170.419)"/><path class="a" d="M399.316,170.419h-2.935c.455,1.215.842,2.463,1.209,3.7q1.207,4.045,2.375,8.1a23.151,23.151,0,0,1,.922,7.118h3.246a2.124,2.124,0,0,0,2.162-2.23,42.256,42.256,0,0,0-1.137-7.226,48.1,48.1,0,0,0-2.544-7.228A4,4,0,0,0,399.316,170.419Z" transform="translate(-289.961 -170.419)"/></g><path class="a" d="M104.612,179.474c6.016,1.584,11.33,2.122,18.849-2.793,12.019-7.442,19.421-7.442,31.44,0,7.519,4.915,12.832,4.376,18.849,2.793a28.1,28.1,0,0,0,12.8-7.187c3.694-3.639,3.734-9.554,2.333-14.452-.425-1.487-1.206-4.183-2.368-8.078a41.9,41.9,0,0,0-1.772-5.049c-1.6-3.572-3.74-5.616-8.266-6.7a160.252,160.252,0,0,0-74.589,0c-4.526,1.084-6.667,3.127-8.266,6.7a41.909,41.909,0,0,0-1.772,5.049c-1.162,3.895-1.943,6.591-2.368,8.078-1.4,4.9-1.361,10.812,2.333,14.452A28.1,28.1,0,0,0,104.612,179.474Z" transform="translate(-16.112)"/><path class="b" d="M159.626,186.128l-12.807,7.394a2.29,2.29,0,0,1-3.436-1.984V176.75a2.29,2.29,0,0,1,3.436-1.984l12.807,7.394a2.291,2.291,0,0,1,0,3.967Z" transform="translate(-53.287 -27.729)"/></g></svg>