<svg xmlns="http://www.w3.org/2000/svg" width="36.975" height="24.231" viewBox="0 0 36.975 24.231"><g transform="translate(-545.265 -363.925)"><g transform="translate(560.41 378.303)"><path d="M591.7,405.462a.728.728,0,0,1-.728-.728c0-.377-.735-.924-1.887-.924s-1.888.547-1.888.924a.728.728,0,0,1-1.455,0c0-1.334,1.468-2.379,3.343-2.379s3.342,1.045,3.342,2.379A.728.728,0,0,1,591.7,405.462Z" transform="translate(-585.746 -402.355)"/></g><g transform="translate(545.265 371.556)"><path d="M553.565,400.921a8.3,8.3,0,1,1,8.3-8.3A8.309,8.309,0,0,1,553.565,400.921Zm0-15.145a6.845,6.845,0,1,0,6.845,6.845A6.853,6.853,0,0,0,553.565,385.776Z" transform="translate(-545.265 -384.321)"/></g><g transform="translate(548.271 374.562)"><path d="M554.027,398.378a.728.728,0,0,1-.728-.728,5.3,5.3,0,0,1,5.294-5.294.728.728,0,1,1,0,1.455,3.843,3.843,0,0,0-3.838,3.839A.728.728,0,0,1,554.027,398.378Z" transform="translate(-553.299 -392.356)"/></g><g transform="translate(565.639 371.556)"><path d="M608.026,400.921a8.3,8.3,0,1,1,8.3-8.3A8.31,8.31,0,0,1,608.026,400.921Zm0-15.145a6.845,6.845,0,1,0,6.844,6.845A6.853,6.853,0,0,0,608.026,385.776Z" transform="translate(-599.725 -384.321)"/></g><g transform="translate(568.646 374.562)"><path d="M608.489,398.378a.728.728,0,0,1-.728-.728,5.3,5.3,0,0,1,5.295-5.294.728.728,0,1,1,0,1.455,3.843,3.843,0,0,0-3.839,3.839A.728.728,0,0,1,608.489,398.378Z" transform="translate(-607.761 -392.356)"/></g><g transform="translate(547.653 363.927)"><path d="M567.747,376.611a.728.728,0,0,1-.728-.728V366.9a5.218,5.218,0,0,0-7.444.175c-6.564,7.666-6.665,7.759-6.7,7.8a.728.728,0,0,1-1.02-1.037c.243-.267,4.1-4.759,6.641-7.73.068-.072,4.627-4.819,9.749-.06a.727.727,0,0,1,.233.534v9.306A.728.728,0,0,1,567.747,376.611Z" transform="translate(-551.647 -363.928)"/></g><g transform="translate(563.025 363.925)"><path d="M608.829,375.064a.717.717,0,0,1-.493-.2c-.037-.036-.137-.129-6.724-7.82a5.238,5.238,0,0,0-7.654.06.728.728,0,1,1-.99-1.067c5.121-4.759,9.682-.013,9.728.036,2.582,3.014,6.465,7.541,6.665,7.759a.73.73,0,0,1-.533,1.227Z" transform="translate(-592.736 -363.925)"/></g></g></svg>
