<svg xmlns="http://www.w3.org/2000/svg" width="18.87" height="18.87" viewBox="0 0 18.87 18.87"><defs><style>.a{fill:rgba(0,0,0,0.5);}</style></defs><path class="a" d="M2.83,2.83A8.565,8.565,0,0,1,9.435,0a8.565,8.565,0,0,1,6.6,2.83,8.565,8.565,0,0,1,2.83,6.6,8.565,8.565,0,0,1-2.83,6.6,8.565,8.565,0,0,1-6.6,2.83,8.565,8.565,0,0,1-6.6-2.83A9.416,9.416,0,0,1,0,9.435,8.565,8.565,0,0,1,2.83,2.83Zm7.862,14.152a3.863,3.863,0,0,0,2.359-1.415,6.868,6.868,0,0,0,1.1-3.3,2.6,2.6,0,0,0-.786-1.887,2.768,2.768,0,0,0-2.044-.943H9.749A4.591,4.591,0,0,1,8.334,9.12a1.428,1.428,0,0,1-.472-1.1.817.817,0,0,1,.314-.629,1.192,1.192,0,0,1,.629-.314,1.073,1.073,0,0,1,.786.472c.314.157.472.314.629.314a.945.945,0,0,0,.629-.157.945.945,0,0,0,.157-.629A2.5,2.5,0,0,0,10.221,5.5a6.5,6.5,0,0,0,.786-2.988.338.338,0,0,0-.314-.314,4.861,4.861,0,0,0-1.258-.314A7.866,7.866,0,0,0,5.346,3.145,3.959,3.959,0,0,0,3.931,6.29,4.026,4.026,0,0,0,5.189,9.278a4.3,4.3,0,0,0,2.988,1.258h0v.629a2.019,2.019,0,0,0,.629,1.572,2.29,2.29,0,0,0,1.415.943v2.83c0,.157,0,.157.157.314S10.536,16.983,10.693,16.983Z" transform="translate(0 0)"/></svg>