<svg xmlns="http://www.w3.org/2000/svg" xmlns:xlink="http://www.w3.org/1999/xlink" width="88.578" height="62.497" viewBox="0 0 88.578 62.497">
  <defs>
    <linearGradient id="linear-gradient" x1="0.16" y1="0.84" x2="0.84" y2="0.16" gradientUnits="objectBoundingBox">
      <stop offset="0" stop-color="#52aa34"/>
      <stop offset="1" stop-color="#dada39"/>
    </linearGradient>
  </defs>
  <g id="axiance_logo_-_black" data-name="axiance logo - black" transform="translate(-228.233 -88.736)">
    <path id="Path_5768" data-name="Path 5768" d="M341.7,112.925a.863.863,0,0,1,0,1.22L330.345,125.5a.862.862,0,0,1-1.22,0l-5.679-5.679-5.679,5.679a.862.862,0,0,1-1.22,0L305.19,114.144a.862.862,0,0,1,0-1.22l5.679-5.679-5.679-5.679a.862.862,0,0,1,0-1.22l11.358-11.358a.863.863,0,0,1,1.22,0l5.679,5.679,5.679-5.679a.863.863,0,0,1,1.22,0L341.7,100.347a.863.863,0,0,1,0,1.22l-5.679,5.679L329.771,101a8.886,8.886,0,1,0-.008,12.491l6.26-6.249Z" transform="translate(-50.922 0)" fill="url(#linear-gradient)"/>
    <g id="Group_2818" data-name="Group 2818" transform="translate(228.233 132.345)">
      <path id="Path_5769" data-name="Path 5769" d="M234.617,247.722a6.1,6.1,0,0,1-3.242-.884,6.382,6.382,0,0,1-2.3-2.427,7.77,7.77,0,0,1-.019-7.017,6.318,6.318,0,0,1,2.27-2.427,6.485,6.485,0,0,1,6.265-.163,5.2,5.2,0,0,1,2.088,2.019v-2.345h2.433v12.843h-2.433v-2.408a6,6,0,0,1-2.157,2.069A5.838,5.838,0,0,1,234.617,247.722Zm.652-2.094a4.419,4.419,0,0,0,2.327-.608,4.308,4.308,0,0,0,1.586-1.674,5.473,5.473,0,0,0,0-4.891,4.314,4.314,0,0,0-1.586-1.675,4.743,4.743,0,0,0-4.647,0,4.342,4.342,0,0,0-1.6,1.675,5.4,5.4,0,0,0,0,4.885,4.326,4.326,0,0,0,1.6,1.681A4.426,4.426,0,0,0,235.269,245.628Z" transform="translate(-228.233 -228.835)" fill="#fff"/>
      <path id="Path_5770" data-name="Path 5770" d="M272.19,248.114l5.443-6.647-4.7-6.2h2.809l3.424,4.5,3.411-4.5h2.81l-4.7,6.2,5.443,6.647h-2.9l-4.064-5.042-4.076,5.042Z" transform="translate(-257.415 -229.627)" fill="#fff"/>
      <path id="Path_5771" data-name="Path 5771" d="M316.835,221.528a1.445,1.445,0,0,1-.759-.207,1.566,1.566,0,0,1-.552-.558,1.477,1.477,0,0,1-.207-.765,1.437,1.437,0,0,1,.207-.765,1.6,1.6,0,0,1,.552-.546,1.505,1.505,0,0,1,1.524,0,1.619,1.619,0,0,1,.546.546,1.437,1.437,0,0,1,.207.765,1.477,1.477,0,0,1-.207.765,1.584,1.584,0,0,1-.546.558A1.435,1.435,0,0,1,316.835,221.528Zm-1.216,15.438V224.124h2.433v12.843Z" transform="translate(-286.047 -218.48)" fill="#fff"/>
      <path id="Path_5772" data-name="Path 5772" d="M335.341,247.722a6.1,6.1,0,0,1-3.242-.884,6.382,6.382,0,0,1-2.3-2.427,7.773,7.773,0,0,1-.019-7.017,6.317,6.317,0,0,1,2.27-2.427,6.485,6.485,0,0,1,6.265-.163,5.2,5.2,0,0,1,2.088,2.019v-2.345h2.433v12.843h-2.433v-2.408a6,6,0,0,1-2.157,2.069A5.837,5.837,0,0,1,335.341,247.722Zm.652-2.094a4.418,4.418,0,0,0,2.327-.608,4.308,4.308,0,0,0,1.586-1.674,5.473,5.473,0,0,0,0-4.891,4.313,4.313,0,0,0-1.586-1.675,4.743,4.743,0,0,0-4.647,0,4.342,4.342,0,0,0-1.6,1.675,5.406,5.406,0,0,0,0,4.885,4.326,4.326,0,0,0,1.6,1.681A4.427,4.427,0,0,0,335.993,245.628Z" transform="translate(-295.102 -228.835)" fill="#fff"/>
      <path id="Path_5773" data-name="Path 5773" d="M376.829,247.321V234.478h2.433v1.656a4.588,4.588,0,0,1,1.693-1.467,5.49,5.49,0,0,1,2.621-.59,5.139,5.139,0,0,1,2.584.621,4.2,4.2,0,0,1,1.687,1.787,6.056,6.056,0,0,1,.6,2.784v8.052H386.01v-7.562a4.02,4.02,0,0,0-.866-2.772,3.1,3.1,0,0,0-2.433-.966,3.725,3.725,0,0,0-1.85.433,3.056,3.056,0,0,0-1.185,1.154,3.107,3.107,0,0,0-.414,1.574v8.139Z" transform="translate(-326.883 -228.835)" fill="#fff"/>
      <path id="Path_5774" data-name="Path 5774" d="M423.992,247.722a7.214,7.214,0,0,1-2.728-.514,6.95,6.95,0,0,1-2.239-1.442,6.735,6.735,0,0,1-1.512-2.17,6.628,6.628,0,0,1-.546-2.7,6.669,6.669,0,0,1,2.007-4.835,6.92,6.92,0,0,1,2.232-1.461,7.207,7.207,0,0,1,2.772-.527,7.767,7.767,0,0,1,2.408.37,6.1,6.1,0,0,1,1.932,1l-.916,1.643a5.373,5.373,0,0,0-5.644-.332,4.49,4.49,0,0,0-1.687,1.737,4.944,4.944,0,0,0-.6,2.408,4.86,4.86,0,0,0,.614,2.439,4.533,4.533,0,0,0,1.712,1.718,4.963,4.963,0,0,0,2.527.634,5.388,5.388,0,0,0,1.681-.257,4.409,4.409,0,0,0,1.38-.721l.928,1.643a6.573,6.573,0,0,1-1.932.991A7.528,7.528,0,0,1,423.992,247.722Z" transform="translate(-353.532 -228.835)" fill="#fff"/>
      <path id="Path_5775" data-name="Path 5775" d="M458.517,247.722a7.344,7.344,0,0,1-3.624-.89,6.692,6.692,0,0,1-2.533-2.427,6.571,6.571,0,0,1-.928-3.468,6.774,6.774,0,0,1,.527-2.671,6.9,6.9,0,0,1,1.467-2.188,6.753,6.753,0,0,1,4.841-2,7.209,7.209,0,0,1,3.518.828,5.964,5.964,0,0,1,2.358,2.308,6.8,6.8,0,0,1,.847,3.436,2.276,2.276,0,0,1-.012.263q-.013.1-.05.264H453.889a4.566,4.566,0,0,0,.608,2.37,4.3,4.3,0,0,0,1.681,1.612,5.073,5.073,0,0,0,6.628-1.562l1.781.928a6.294,6.294,0,0,1-2.515,2.358A7.522,7.522,0,0,1,458.517,247.722Zm-4.5-8.34h8.528a3.8,3.8,0,0,0-.771-1.737,4.116,4.116,0,0,0-1.492-1.166,4.6,4.6,0,0,0-1.975-.42,4.936,4.936,0,0,0-2.038.407,3.8,3.8,0,0,0-2.251,2.916Z" transform="translate(-376.411 -228.835)" fill="#fff"/>
    </g>
  </g>
</svg>
