<svg xmlns="http://www.w3.org/2000/svg" width="45" height="45" viewBox="0 0 45 45">
  <g id="promo_icon" data-name="promo icon" transform="translate(-50 -921)" opacity="0.5">
    <g id="Path_5477" data-name="Path 5477" transform="translate(50 921)" fill="none">
      <path d="M22.5,0A22.5,22.5,0,1,1,0,22.5,22.5,22.5,0,0,1,22.5,0Z" stroke="none"/>
      <path d="M 22.5 1.5 C 19.66436004638672 1.5 16.91432952880859 2.055030822753906 14.32630920410156 3.149669647216797 C 11.82582092285156 4.207279205322266 9.579841613769531 5.721668243408203 7.650760650634766 7.650760650634766 C 5.721668243408203 9.579841613769531 4.207279205322266 11.82582092285156 3.149669647216797 14.32630920410156 C 2.055030822753906 16.91432952880859 1.5 19.66436004638672 1.5 22.5 C 1.5 25.33563995361328 2.055030822753906 28.08567047119141 3.149669647216797 30.67369079589844 C 4.207279205322266 33.17417907714844 5.721668243408203 35.42015838623047 7.650760650634766 37.34923934936523 C 9.579841613769531 39.27832794189453 11.82582092285156 40.79272079467773 14.32630920410156 41.8503303527832 C 16.91432952880859 42.94496917724609 19.66436004638672 43.5 22.5 43.5 C 25.33563995361328 43.5 28.08567047119141 42.94496917724609 30.67369079589844 41.8503303527832 C 33.17417907714844 40.79272079467773 35.42015838623047 39.27832794189453 37.34923934936523 37.34923934936523 C 39.27832794189453 35.42015838623047 40.79272079467773 33.17417907714844 41.8503303527832 30.67369079589844 C 42.94496917724609 28.08567047119141 43.5 25.33563995361328 43.5 22.5 C 43.5 19.66436004638672 42.94496917724609 16.91432952880859 41.8503303527832 14.32630920410156 C 40.79272079467773 11.82582092285156 39.27832794189453 9.579841613769531 37.34923934936523 7.650760650634766 C 35.42015838623047 5.721668243408203 33.17417907714844 4.207279205322266 30.67369079589844 3.149669647216797 C 28.08567047119141 2.055030822753906 25.33563995361328 1.5 22.5 1.5 M 22.5 0 C 34.92641067504883 0 45 10.07358932495117 45 22.5 C 45 34.92641067504883 34.92641067504883 45 22.5 45 C 10.07358932495117 45 0 34.92641067504883 0 22.5 C 0 10.07358932495117 10.07358932495117 0 22.5 0 Z" stroke="none" fill="#000"/>
    </g>
    <g id="Group_1531" data-name="Group 1531" transform="translate(60.816 930.128)">
      <path id="Rectangle_1192" data-name="Rectangle 1192" d="M0,0H18.738a0,0,0,0,1,0,0V10.835a1,1,0,0,1-1,1H1a1,1,0,0,1-1-1V0A0,0,0,0,1,0,0Z" transform="translate(1.972 10.848)" fill="none" stroke="#000" stroke-linecap="round" stroke-linejoin="round" stroke-width="1.5"/>
      <rect id="Rectangle_1193" data-name="Rectangle 1193" width="22.683" height="3.945" rx="1" transform="translate(0 6.903)" fill="none" stroke="#000" stroke-linecap="round" stroke-linejoin="round" stroke-width="1.5"/>
      <rect id="Rectangle_1194" data-name="Rectangle 1194" width="2.959" height="15.78" transform="translate(9.862 6.903)" fill="none" stroke="#000" stroke-linecap="round" stroke-linejoin="round" stroke-width="1.5"/>
      <path id="Path_3323" data-name="Path 3323" d="M-913.16,736.171a3.456,3.456,0,0,0,3.452-3.452,3.456,3.456,0,0,0-3.452-3.452,3.456,3.456,0,0,0-3.452,3.452v3.452h3.452" transform="translate(927.954 -729.267)" fill="none" stroke="#000" stroke-linecap="round" stroke-linejoin="round" stroke-width="1.5"/>
      <path id="Path_3324" data-name="Path 3324" d="M-920.16,736.171h3.452v-3.452a3.456,3.456,0,0,0-3.452-3.452,3.456,3.456,0,0,0-3.452,3.452,3.456,3.456,0,0,0,3.452,3.452" transform="translate(928.05 -729.267)" fill="none" stroke="#000" stroke-linecap="round" stroke-linejoin="round" stroke-width="1.5"/>
    </g>
  </g>
</svg>
