<svg xmlns="http://www.w3.org/2000/svg" width="43.602" height="39.561" viewBox="0 0 43.602 39.561"><defs><style>.a{fill:#7a7a7a;stroke:#7a7a7a;stroke-width:0.5px;}</style></defs><g transform="translate(0.25 0.25)"><path class="a" d="M169.081,344H130.02a2.02,2.02,0,1,0,0,4.041h39.061a2.02,2.02,0,1,0,0-4.041Zm0,2.694H130.02a.673.673,0,0,1,0-1.347h39.061a.673.673,0,1,1,0,1.347Z" transform="translate(-128 -308.98)"/><path class="a" d="M148.2,211.769a.673.673,0,0,0,.476,1.15h35.02a.673.673,0,0,0,.476-1.15,10.386,10.386,0,0,1-2.806-5.312A15.537,15.537,0,0,0,168.877,194.3v-2.257a.674.674,0,0,0-.673-.673h-1.347v-2.02H168.2a.673.673,0,1,0,0-1.347h-4.041a.673.673,0,0,0,0,1.347h1.347v2.02h-1.347a.674.674,0,0,0-.673.673V194.3A15.537,15.537,0,0,0,151,206.457,10.386,10.386,0,0,1,148.2,211.769Zm16.639-19.054h2.694v1.347h-2.694Zm1.347,2.694a14.179,14.179,0,0,1,13.86,11.317,11.888,11.888,0,0,0,2.17,4.847H150.153a11.888,11.888,0,0,0,2.17-4.847A14.179,14.179,0,0,1,166.183,195.408Z" transform="translate(-144.632 -179.245)"/><path class="a" d="M252.673,241.347a11.477,11.477,0,0,1,11.22,9.158.673.673,0,1,0,1.32-.268A12.828,12.828,0,0,0,252.673,240a.673.673,0,1,0,0,1.347Z" transform="translate(-231.123 -222.49)"/><path class="a" d="M252.673,140.041a.674.674,0,0,0,.673-.673v-2.694a.673.673,0,0,0-1.347,0v2.694A.674.674,0,0,0,252.673,140.041Z" transform="translate(-231.123 -136)"/><path class="a" d="M201.437,153.276a.673.673,0,1,0,1.166-.673l-1.347-2.333a.673.673,0,0,0-1.166.674Z" transform="translate(-187.877 -147.587)"/><path class="a" d="M162.27,189.256,164.6,190.6a.673.673,0,1,0,.673-1.166l-2.333-1.347a.673.673,0,1,0-.673,1.166Z" transform="translate(-156.22 -179.244)"/><path class="a" d="M148.673,241.347h2.694a.673.673,0,0,0,0-1.347h-2.694a.673.673,0,1,0,0,1.347Z" transform="translate(-144.633 -222.49)"/><path class="a" d="M340,240.673a.674.674,0,0,0,.673.673h2.694a.673.673,0,0,0,0-1.347h-2.694A.673.673,0,0,0,340,240.673Z" transform="translate(-304.306 -222.49)"/><path class="a" d="M328.884,190.693a.67.67,0,0,0,.336-.09l2.333-1.347a.673.673,0,0,0-.673-1.166l-2.333,1.347a.674.674,0,0,0,.337,1.257Z" transform="translate(-294.501 -179.244)"/><path class="a" d="M296.336,153.523a.673.673,0,0,0,.92-.247l1.347-2.333a.673.673,0,0,0-1.166-.674L296.09,152.6A.674.674,0,0,0,296.336,153.523Z" transform="translate(-267.714 -147.587)"/></g></svg>