<?xml version="1.0" encoding="UTF-8" standalone="no"?>
<svg
   width="47.667"
   height="49"
   viewBox="0 0 47.667 49"
   version="1.1"
   id="svg72"
   sodipodi:docname="company-details-icon.svg"
   inkscape:version="1.1 (ce6663b3b7, 2021-05-25)"
   xmlns:inkscape="http://www.inkscape.org/namespaces/inkscape"
   xmlns:sodipodi="http://sodipodi.sourceforge.net/DTD/sodipodi-0.dtd"
   xmlns="http://www.w3.org/2000/svg"
   xmlns:svg="http://www.w3.org/2000/svg">
  <sodipodi:namedview
     id="namedview74"
     pagecolor="#ffffff"
     bordercolor="#666666"
     borderopacity="1.0"
     inkscape:pageshadow="2"
     inkscape:pageopacity="0"
     inkscape:pagecheckerboard="0"
     showgrid="false"
     inkscape:zoom="9.9795918"
     inkscape:cx="22.546012"
     inkscape:cy="24.5"
     inkscape:window-width="1920"
     inkscape:window-height="1052"
     inkscape:window-x="0"
     inkscape:window-y="0"
     inkscape:window-maximized="1"
     inkscape:current-layer="g70"
     width="54.667px" />
  <defs
     id="defs4">
    <style
       id="style2">.a,.e{fill:none;}.a{stroke:#fff;stroke-width:2px;}.b{fill:#fff;}.c{fill:#ffbc00;}.d{stroke:none;}</style>
  </defs>
  <g
     transform="translate(-1017,-119)"
     id="g70">
    <g
       transform="matrix(0.94458945,0,0,0.99262043,944.37528,-370.04389)"
       id="g60">
      <g
         transform="translate(77,493)"
         id="g14">
        <g
           id="g12">
          <g
             class="a"
             id="g10">
            <ellipse
               class="d"
               cx="25"
               cy="24.5"
               rx="25"
               ry="24.5"
               id="ellipse6" />
            <ellipse
               class="e"
               cx="25"
               cy="24.5"
               rx="24"
               ry="23.5"
               id="ellipse8" />
          </g>
        </g>
      </g>
      <g
         transform="translate(87.13,503.397)"
         id="g58">
        <path
           class="b"
           d="m 2325.7,2584.789 h -1.617 v -2.022 h 1.617 z"
           transform="translate(-2319.226,-2568.676)"
           id="path16" />
        <path
           class="b"
           d="m 2325.7,2500.191 h -1.617 v -2.021 h 1.617 z"
           transform="translate(-2319.226,-2487.718)"
           id="path18" />
        <path
           class="b"
           d="m 2325.7,2669.385 h -1.617 v -2.021 h 1.617 z"
           transform="translate(-2319.226,-2649.634)"
           id="path20" />
        <path
           class="b"
           d="m 2325.7,2763.248 h -1.617 v -1.887 h 1.617 z"
           transform="translate(-2319.226,-2739.587)"
           id="path22" />
        <path
           class="b"
           d="m 2754.947,2584.789 h -1.617 v -2.022 h 1.617 z"
           transform="translate(-2730.013,-2568.676)"
           id="path24" />
        <path
           class="b"
           d="m 2754.947,2500.191 h -1.617 v -2.021 h 1.617 z"
           transform="translate(-2730.013,-2487.718)"
           id="path26" />
        <path
           class="b"
           d="m 2754.947,2669.385 h -1.617 v -2.021 h 1.617 z"
           transform="translate(-2730.013,-2649.634)"
           id="path28" />
        <path
           class="b"
           d="m 2754.947,2763.248 h -1.617 v -1.887 h 1.617 z"
           transform="translate(-2730.013,-2739.587)"
           id="path30" />
        <path
           class="b"
           d="m 2541.753,2418.593 h -1.483 v -1.887 h 1.483 z"
           transform="translate(-2526.119,-2409.758)"
           id="path32" />
        <path
           class="b"
           d="m 2623.352,2418.593 h -1.617 v -1.887 h 1.617 z"
           transform="translate(-2604.079,-2409.758)"
           id="path34" />
        <path
           class="b"
           d="m 2457.291,2418.593 h -1.617 v -1.887 h 1.617 z"
           transform="translate(-2445.161,-2409.758)"
           id="path36" />
        <path
           class="b"
           d="m 2541.753,2315.332 h -1.483 v -2.022 h 1.483 z"
           transform="translate(-2526.119,-2310.81)"
           id="path38" />
        <path
           class="b"
           d="m 2623.352,2315.332 h -1.617 v -2.022 h 1.617 z"
           transform="translate(-2604.079,-2310.81)"
           id="path40" />
        <path
           class="b"
           d="m 2457.291,2315.332 h -1.617 v -2.022 h 1.617 z"
           transform="translate(-2445.161,-2310.81)"
           id="path42" />
        <path
           class="b"
           d="m 2541.753,2518.991 h -1.483 v -2.022 h 1.483 z"
           transform="translate(-2526.119,-2505.708)"
           id="path44" />
        <path
           class="b"
           d="m 2623.352,2518.991 h -1.617 v -2.022 h 1.617 z"
           transform="translate(-2604.079,-2505.708)"
           id="path46" />
        <path
           class="b"
           d="m 2457.291,2518.991 h -1.617 v -2.022 h 1.617 z"
           transform="translate(-2445.161,-2505.708)"
           id="path48" />
        <path
           class="b"
           d="m 2541.753,2622.387 h -1.483 v -2.021 h 1.483 z"
           transform="translate(-2526.119,-2604.657)"
           id="path50" />
        <path
           class="b"
           d="m 2623.352,2622.387 h -1.617 v -2.021 h 1.617 z"
           transform="translate(-2604.079,-2604.657)"
           id="path52" />
        <path
           class="b"
           d="m 2457.291,2622.387 h -1.617 v -2.021 h 1.617 z"
           transform="translate(-2445.161,-2604.657)"
           id="path54" />
        <path
           class="b"
           d="m 2238.332,2280.436 h -5.61 v -16.43 h 5.61 z m -6.813,0 h -2.8 v -5.41 a 0.6,0.6 0 0 0 -0.6,-0.6 h -4.408 a 0.6,0.6 0 0 0 -0.6,0.6 v 5.41 h -2.4 v -24.044 h 10.82 v 24.044 z m -4.008,0 h -3.206 v -4.809 h 3.206 z m -8.014,0 h -5.61 v -16.43 h 5.61 z m 5.61,-25.247 h -7.213 a 0.6,0.6 0 0 0 0,1.2 h 1.6 v 6.412 h -7.614 a 0.6,0.6 0 1 0 0,1.2 h 0.8 v 16.43 h -1.2 v 1.2 h 29.254 v -1.2 h -1.2 v -16.43 h 1.2 a 0.6,0.6 0 1 0 0,-1.2 h -8.015 v -6.412 h 1.2 a 0.6,0.6 0 0 0 0,-1.2 h -7.614"
           transform="translate(-2211.282,-2255.189)"
           id="path56" />
      </g>
    </g>
  </g>
</svg>
