<?xml version="1.0" encoding="UTF-8" standalone="no"?>
<svg
   width="45"
   height="45"
   viewBox="0 0 45 45"
   version="1.1"
   id="svg22"
   sodipodi:docname="copy icon.svg"
   inkscape:version="1.1 (ce6663b3b7, 2021-05-25)"
   xmlns:inkscape="http://www.inkscape.org/namespaces/inkscape"
   xmlns:sodipodi="http://sodipodi.sourceforge.net/DTD/sodipodi-0.dtd"
   xmlns="http://www.w3.org/2000/svg"
   xmlns:svg="http://www.w3.org/2000/svg">
  <sodipodi:namedview
     id="namedview24"
     pagecolor="#ffffff"
     bordercolor="#666666"
     borderopacity="1.0"
     inkscape:pageshadow="2"
     inkscape:pageopacity="0.0"
     inkscape:pagecheckerboard="0"
     showgrid="false"
     inkscape:zoom="10.866667"
     inkscape:cx="22.453988"
     inkscape:cy="22.5"
     inkscape:window-width="1920"
     inkscape:window-height="1052"
     inkscape:window-x="0"
     inkscape:window-y="0"
     inkscape:window-maximized="1"
     inkscape:current-layer="g20" />
  <defs
     id="defs4">
    <style
       id="style2">.a,.b,.d{fill:none;}.a,.b{stroke:#000;stroke-width:1.5px;}.b{stroke-linecap:round;stroke-linejoin:round;}.c{stroke:none;}</style>
  </defs>
  <g
     transform="translate(-51 -721)"
     id="g20">
    <g
       transform="translate(61.714 729.768)"
       id="g18">
      <path
         class="b"
         d="M-579.927,718.612a1.187,1.187,0,0,1,0,1.911l-11.4,8.378a1.184,1.184,0,0,1-1.4,0l-11.4-8.378a1.187,1.187,0,0,1,0-1.911"
         transform="translate(604.621 -701.899)"
         id="path12" />
      <path
         class="b"
         d="M-604.138,715.194a1.185,1.185,0,0,0,0,1.911l1.119.822,10.285,7.556a1.184,1.184,0,0,0,1.4,0l10.286-7.556,1.119-.822a1.185,1.185,0,0,0,0-1.911"
         transform="translate(604.623 -702.532)"
         id="path14" />
      <path
         class="b"
         d="M-579.927,713.119l-11.4-8.378a1.184,1.184,0,0,0-1.4,0l-11.4,8.378a1.186,1.186,0,0,0,0,1.911l1.119.823,2.418,1.778,7.868,5.778a1.185,1.185,0,0,0,1.4,0l7.868-5.778,2.418-1.778,1.119-.823A1.186,1.186,0,0,0-579.927,713.119Z"
         transform="translate(604.622 -704.511)"
         id="path16" />
    </g>
  </g>
</svg>
