<svg xmlns="http://www.w3.org/2000/svg" width="29.667" height="29.667" viewBox="0 0 29.667 29.667"><defs><style>.a{fill:#ffbc00;}</style></defs><g transform="translate(-500 -500)"><path class="a" d="M514.833,500a14.833,14.833,0,1,0,14.833,14.833A14.85,14.85,0,0,0,514.833,500Zm0,26.97a12.136,12.136,0,1,1,12.136-12.136A12.15,12.15,0,0,1,514.833,526.97Z" transform="translate(0 0)"/><circle class="a" cx="1.348" cy="1.348" r="1.348" transform="translate(513.485 521.576)"/><path class="a" d="M914.514,683.94a2.563,2.563,0,0,0-.637,1.987l1.2,10.8a1.349,1.349,0,0,0,2.681,0l1.2-10.8a2.561,2.561,0,0,0-.637-1.986A2.636,2.636,0,0,0,914.514,683.94Z" transform="translate(-401.583 -177.695)"/></g></svg>