<svg xmlns="http://www.w3.org/2000/svg" width="34.48" height="47" viewBox="0 0 34.48 47"><defs><style>.a{fill:#7a7a7a;stroke:#7a7a7a;stroke-width:0.5px;}</style></defs><g transform="translate(0.25 0.261)"><path class="a" d="M624.566,200.77h-8.211a.536.536,0,0,1-.536-.536v-8.211a.536.536,0,0,1,.915-.379l8.211,8.211a.536.536,0,0,1-.379.915Zm-7.675-1.072h6.381l-6.381-6.382Z" transform="translate(-591.132 -191.487)"/><path class="a" d="M434.256,276.845H419.162a.536.536,0,1,1,0-1.072h15.095a.536.536,0,0,1,0,1.072Z" transform="translate(-413.149 -267.562)"/><path class="a" d="M434.256,311.073H419.162a.536.536,0,1,1,0-1.072h15.095a.536.536,0,0,1,0,1.072Z" transform="translate(-413.149 -298.456)"/><path class="a" d="M442.478,345.3H419.162a.536.536,0,1,1,0-1.072h23.316a.536.536,0,0,1,0,1.072Z" transform="translate(-413.149 -329.35)"/><path class="a" d="M442.478,383.733H419.162a.536.536,0,1,1,0-1.072h23.316a.536.536,0,0,1,0,1.072Z" transform="translate(-413.149 -364.037)"/><path class="a" d="M442.478,422.164H419.162a.536.536,0,1,1,0-1.072h23.316a.536.536,0,0,1,0,1.072Z" transform="translate(-413.149 -398.724)"/><path class="a" d="M432.555,460.593H419.162a.536.536,0,1,1,0-1.072h13.394a.536.536,0,1,1,0,1.072Z" transform="translate(-413.149 -433.409)"/><path class="a" d="M577.926,523.07a3.312,3.312,0,1,1,3.312-3.312A3.316,3.316,0,0,1,577.926,523.07Zm0-5.553a2.241,2.241,0,1,0,2.241,2.241A2.243,2.243,0,0,0,577.926,517.518Z" transform="translate(-553.941 -484.789)"/><path class="a" d="M553.961,501.016a.535.535,0,0,1-.412-.193l-.5-.6-.678.4a.536.536,0,0,1-.775-.282l-.265-.74-.773.14a.536.536,0,0,1-.631-.53l0-.785-.774-.132a.536.536,0,0,1-.412-.714l.272-.737-.682-.39a.536.536,0,0,1-.143-.812l.508-.6-.508-.6a.536.536,0,0,1,.143-.812l.682-.39-.272-.737a.536.536,0,0,1,.412-.714l.774-.132,0-.785a.536.536,0,0,1,.631-.53l.773.139.265-.74a.536.536,0,0,1,.775-.282l.678.4.5-.6a.536.536,0,0,1,.824,0l.5.6.678-.4a.536.536,0,0,1,.775.282l.265.74.773-.14a.536.536,0,0,1,.631.53l0,.785.774.132a.536.536,0,0,1,.413.714l-.272.737.682.39a.536.536,0,0,1,.143.812l-.508.6.508.6a.536.536,0,0,1-.143.812l-.682.39.272.737a.536.536,0,0,1-.413.714l-.774.132,0,.785a.536.536,0,0,1-.631.53l-.773-.14-.265.74a.536.536,0,0,1-.775.282l-.678-.4-.5.6A.536.536,0,0,1,553.961,501.016Zm-.793-2.024a.535.535,0,0,1,.412.193l.381.458.381-.458a.535.535,0,0,1,.682-.12l.513.3.2-.559a.535.535,0,0,1,.6-.347l.586.106,0-.6a.536.536,0,0,1,.446-.531l.586-.1-.206-.558a.536.536,0,0,1,.237-.65l.516-.3-.385-.453a.536.536,0,0,1,0-.693l.385-.453-.516-.3a.536.536,0,0,1-.237-.651l.206-.558-.586-.1a.536.536,0,0,1-.446-.531l0-.6-.586.106a.535.535,0,0,1-.6-.347l-.2-.559-.513.3a.536.536,0,0,1-.682-.12l-.381-.458-.381.458a.536.536,0,0,1-.682.12l-.513-.3-.2.559a.535.535,0,0,1-.6.347l-.586-.106,0,.6a.536.536,0,0,1-.446.531l-.586.1.206.558a.536.536,0,0,1-.237.651l-.516.295.385.454a.536.536,0,0,1,0,.693l-.385.453.516.3a.536.536,0,0,1,.237.65l-.206.558.586.1a.536.536,0,0,1,.446.531l0,.6.585-.106a.536.536,0,0,1,.6.347l.2.559.513-.3A.534.534,0,0,1,553.168,498.991Z" transform="translate(-529.975 -460.065)"/><path class="a" d="M607.679,583.67h-.006a.536.536,0,0,1-.486-.325l-2.449-5.723a.536.536,0,0,1,.081-.554l.639-.768a.536.536,0,0,1,.682-.12l.513.3.2-.559a.535.535,0,0,1,.6-.347l.586.106,0-.6a.536.536,0,0,1,.446-.531l.311-.053a.535.535,0,0,1,.583.318l2.623,6.13a.536.536,0,0,1-.625.73l-2.187-.558-1.018,2.236A.536.536,0,0,1,607.679,583.67Zm-1.827-6.169,1.842,4.306.7-1.54a.536.536,0,0,1,.62-.3l1.569.4L609,576.656a.555.555,0,0,1-.074.076.534.534,0,0,1-.44.117l-.773-.14-.265.74a.536.536,0,0,1-.775.282l-.678-.4Z" transform="translate(-581.091 -537.181)"/><path class="a" d="M541.874,583.726a.536.536,0,0,1-.488-.314l-1.018-2.236-2.187.558a.536.536,0,0,1-.625-.73l2.62-6.124a.536.536,0,0,1,.582-.317l.277.047a.536.536,0,0,1,.446.531l0,.6.586-.106a.535.535,0,0,1,.6.347l.2.559.513-.3a.536.536,0,0,1,.682.12l.664.8a.536.536,0,0,1,.081.553l-2.436,5.694a.536.536,0,0,1-.486.325Zm-1.2-3.716a.536.536,0,0,1,.488.314l.7,1.54,1.83-4.277-.163-.2-.678.4a.536.536,0,0,1-.775-.282l-.265-.739-.773.14a.536.536,0,0,1-.44-.117.542.542,0,0,1-.049-.047l-1.577,3.686,1.569-.4A.525.525,0,0,1,540.67,580.01Z" transform="translate(-520.454 -537.237)"/><path class="a" d="M395.838,234.544h-3.644a.536.536,0,0,1-.493-.325l-1.393-3.257a.535.535,0,0,1-.514.193l-.773-.14-.265.74a.536.536,0,0,1-.775.282l-.678-.4-.139.167.851,1.99a.536.536,0,0,1-.493.747h-2.231a.536.536,0,0,1-.493-.747l.839-1.96-.163-.2-.678.4a.536.536,0,0,1-.775-.282l-.265-.74-.773.14a.536.536,0,0,1-.44-.117.557.557,0,0,1-.049-.047l-1.381,3.227a.536.536,0,0,1-.493.325H362.94a.536.536,0,0,1-.536-.536V192.024a.536.536,0,0,1,.536-.536h24.687a.535.535,0,0,1,.379.157l8.211,8.211a.535.535,0,0,1,.157.379v33.774A.536.536,0,0,1,395.838,234.544Zm-3.29-1.072H395.3V200.457l-7.9-7.9h-23.93v40.913h16.793l1.858-4.342a.536.536,0,0,1,.582-.318l.277.047a.536.536,0,0,1,.446.531l0,.6.586-.106a.535.535,0,0,1,.6.347l.2.559.513-.3a.536.536,0,0,1,.682.12l.381.458.381-.458a.536.536,0,0,1,.682-.12l.513.3.2-.559a.535.535,0,0,1,.6-.347l.586.106,0-.6a.536.536,0,0,1,.446-.531l.311-.053a.536.536,0,0,1,.583.317Zm-6.443,0h.607l-.3-.709Z" transform="translate(-362.404 -191.488)"/></g></svg>