<svg xmlns="http://www.w3.org/2000/svg" xmlns:xlink="http://www.w3.org/1999/xlink" width="47" height="47" viewBox="0 0 47 47"><defs><style>.a{opacity:0.92;fill:url(#a);}.b{fill:#fff;stroke:#fff;stroke-width:0.4px;}</style><linearGradient id="a" x1="0.5" x2="0.5" y2="1" gradientUnits="objectBoundingBox"><stop offset="0" stop-color="#d5e05b"/><stop offset="1" stop-color="#50b848"/></linearGradient></defs><g transform="translate(-49 -720.4)"><circle class="a" cx="23.5" cy="23.5" r="23.5" transform="translate(49 720.4)"/><g transform="translate(61.848 727.9)"><path class="b" d="M341.07,276.026v-2.832a7.923,7.923,0,0,0-7.914-7.914h-1.146a7.923,7.923,0,0,0-7.914,7.914v2.832a2.474,2.474,0,0,0-2.365,2.468v12.892a2.474,2.474,0,0,0,2.471,2.471h16.763a2.474,2.474,0,0,0,2.471-2.471V278.494A2.474,2.474,0,0,0,341.07,276.026Zm-15.757-2.832a6.7,6.7,0,0,1,6.7-6.7h1.146a6.7,6.7,0,0,1,6.7,6.7v2.829h-1.074v-2.829a5.629,5.629,0,0,0-5.622-5.622h-1.146a5.629,5.629,0,0,0-5.622,5.622v2.829h-1.074Zm12.248,0v2.829H327.6v-2.829a4.41,4.41,0,0,1,4.4-4.4h1.146A4.41,4.41,0,0,1,337.56,273.194Zm4.657,18.193a1.255,1.255,0,0,1-1.253,1.253H324.2a1.255,1.255,0,0,1-1.253-1.253V278.494a1.255,1.255,0,0,1,1.253-1.253h16.763a1.255,1.255,0,0,1,1.253,1.253Z" transform="translate(-321.73 -265.28)"/><path class="b" d="M463.972,517.911a2.335,2.335,0,0,0-1.147,4.369,1.164,1.164,0,0,0-.021.215v2.465a1.168,1.168,0,1,0,2.336,0V522.5a1.168,1.168,0,0,0-.021-.215,2.335,2.335,0,0,0-1.147-4.369Z" transform="translate(-453.12 -502.532)"/></g></g></svg>