<svg xmlns="http://www.w3.org/2000/svg" width="42.987" height="36.595" viewBox="0 0 42.987 36.595"><defs><style>.a{fill:none;stroke:#7a7a7a;stroke-linecap:round;stroke-linejoin:round;stroke-width:1.5px;}</style></defs><g transform="translate(0.75 0.75)"><path class="a" d="M389.182,1096.3H352.3a2.253,2.253,0,0,0-2.3,2.289v9.918a2.252,2.252,0,0,0,2.3,2.289h36.877a2.252,2.252,0,0,0,2.3-2.289v-9.918A2.252,2.252,0,0,0,389.182,1096.3Z" transform="translate(-350 -1075.697)"/><path class="a" d="M6.866,0h9.315a6.866,6.866,0,0,1,6.866,6.866v0a0,0,0,0,1,0,0H0a0,0,0,0,1,0,0v0A6.866,6.866,0,0,1,6.866,0Z" transform="translate(9.219 13.733)"/><path class="a" d="M797.162,460.029V452.4c0-3.371-3.1-6.1-6.915-6.1s-6.914,2.733-6.914,6.1v7.629" transform="translate(-769.504 -446.296)"/><path class="a" d="M903.7,1003.052a3.073,3.073,0,0,1,6.146,0" transform="translate(-886.034 -982.453)"/><g transform="translate(4.033 24.795)"><g transform="translate(0)"><line class="a" y1="3.501" x2="5.378" transform="translate(0 1.301)"/><line class="a" x1="5.378" y1="3.501" transform="translate(0 1.301)"/><line class="a" y1="6.103" transform="translate(2.689)"/></g><g transform="translate(9.603)"><line class="a" y1="3.501" x2="5.378" transform="translate(0 1.301)"/><line class="a" x1="5.378" y1="3.501" transform="translate(0 1.301)"/><line class="a" y1="6.103" transform="translate(2.689)"/></g><g transform="translate(18.823)"><line class="a" y1="3.501" x2="5.378" transform="translate(0 1.301)"/><line class="a" x1="5.378" y1="3.501" transform="translate(0 1.301)"/><line class="a" y1="6.103" transform="translate(2.689)"/></g><g transform="translate(28.042)"><line class="a" y1="3.501" x2="5.378" transform="translate(0 1.301)"/><line class="a" x1="5.378" y1="3.501" transform="translate(0 1.301)"/><line class="a" y1="6.103" transform="translate(2.689)"/></g></g></g></svg>