<?xml version="1.0" encoding="UTF-8" standalone="no"?>
<svg
   width="45"
   height="45"
   viewBox="0 0 45 45"
   version="1.1"
   id="svg16"
   sodipodi:docname="Pamm icon.svg"
   inkscape:version="1.1 (ce6663b3b7, 2021-05-25)"
   xmlns:inkscape="http://www.inkscape.org/namespaces/inkscape"
   xmlns:sodipodi="http://sodipodi.sourceforge.net/DTD/sodipodi-0.dtd"
   xmlns="http://www.w3.org/2000/svg"
   xmlns:svg="http://www.w3.org/2000/svg">
  <sodipodi:namedview
     id="namedview18"
     pagecolor="#ffffff"
     bordercolor="#666666"
     borderopacity="1.0"
     inkscape:pageshadow="2"
     inkscape:pageopacity="0.0"
     inkscape:pagecheckerboard="0"
     showgrid="false"
     inkscape:zoom="10.866667"
     inkscape:cx="22.453988"
     inkscape:cy="22.5"
     inkscape:window-width="1920"
     inkscape:window-height="1052"
     inkscape:window-x="0"
     inkscape:window-y="0"
     inkscape:window-maximized="1"
     inkscape:current-layer="g14" />
  <defs
     id="defs4">
    <style
       id="style2">.a,.c{fill:none;}.a{stroke:#000;stroke-width:1.5px;}.b{stroke:none;}</style>
  </defs>
  <g
     transform="translate(-51 -822)"
     id="g14">
    <path
       class="a"
       d="M2.537,11.955V9.547A4.782,4.782,0,0,0,1.073,6.141a3.584,3.584,0,1,1,5.025,0A4.874,4.874,0,0,0,4.63,9.6V11.9A4.9,4.9,0,0,0,6.1,15.372l.025.025A4.9,4.9,0,0,0,9.6,16.872h2.35a4.782,4.782,0,0,0,3.406-1.464,3.584,3.584,0,1,1,0,5.025A4.874,4.874,0,0,0,11.9,18.965H9.547a4.783,4.783,0,0,0-3.407,1.464,3.583,3.583,0,1,1-5.067-5.067A4.783,4.783,0,0,0,2.537,11.955Z"
       transform="matrix(0.719, 0.695, -0.695, 0.719, 75.066, 830.63)"
       id="path6" />
  </g>
</svg>
