<svg xmlns="http://www.w3.org/2000/svg" width="32.816" height="33.613" viewBox="0 0 32.816 33.613"><defs><style>.a{fill:#7a7a7a;}</style></defs><g transform="translate(7.381)"><path class="a" d="M344.408,1489.638a9.027,9.027,0,1,1,9.027-9.027A9.037,9.037,0,0,1,344.408,1489.638Zm0-15.959a6.932,6.932,0,1,0,6.932,6.932A6.94,6.94,0,0,0,344.408,1473.679Z" transform="translate(-335.381 -1471.584)"/></g><g transform="translate(0 16.158)"><path class="a" d="M330.626,1569a1.047,1.047,0,0,1-1.047-1.047,14.313,14.313,0,1,0-28.627,0,1.047,1.047,0,0,1-2.094,0,16.408,16.408,0,1,1,32.816,0A1.047,1.047,0,0,1,330.626,1569Z" transform="translate(-298.858 -1551.542)"/></g></svg>