<svg xmlns="http://www.w3.org/2000/svg" xmlns:xlink="http://www.w3.org/1999/xlink" width="45" height="45" viewBox="0 0 45 45">
  <defs>
    <clipPath id="clip-path">
      <rect id="Rectangle_2670" data-name="Rectangle 2670" width="45" height="45" fill="none"/>
    </clipPath>
  </defs>
  <g id="Group_15735" data-name="Group 15735" transform="translate(-51 -525)">
    <g id="Group_15726" data-name="Group 15726" transform="translate(51 525)" opacity="0.5">
      <g id="Group_15726-2" data-name="Group 15726" clip-path="url(#clip-path)">
        <circle id="Ellipse_330" data-name="Ellipse 330" cx="21.75" cy="21.75" r="21.75" transform="translate(0.75 0.75)" fill="none" stroke="#000" stroke-width="1.5"/>
        <path id="Path_17853" data-name="Path 17853" d="M33.419,12.908A15.443,15.443,0,0,0,11.577,34.746l.254.254,3.861-3.861-.254-.254A10.024,10.024,0,0,1,28.129,15.508a6.713,6.713,0,0,1,.694.554l-6.644,5.2a2.157,2.157,0,1,0,1.835,3.666,2.119,2.119,0,0,0,.6-1.19L29.9,17.151a9.948,9.948,0,0,1-.348,13.734l-.254.254L33.158,35l.254-.254a15.443,15.443,0,0,0,0-21.838Zm-9.906,11.51a1.477,1.477,0,0,1-2.037-.011,1.44,1.44,0,1,1,2.451-.852,1.4,1.4,0,0,1-.415.862Zm1.03-1.729h0a2.169,2.169,0,0,0-1.312-1.331l6.125-4.792.058.058Zm8.62,11.293-2.847-2.847a10.742,10.742,0,0,0,1.266-1.645l1.264.73.359-.622-1.267-.732a10.6,10.6,0,0,0,1.25-4.675h1.466v-.718H33.187a10.623,10.623,0,0,0-1.239-4.682l1.256-.725-.359-.622-1.267.731a10.746,10.746,0,0,0-1.218-1.591l1.779-2.216a.359.359,0,0,0-.5-.507L29.4,15.612a7.637,7.637,0,0,0-.864-.7c-.113-.077-.232-.146-.348-.218l.7-1.21-.622-.359-.7,1.211a10.758,10.758,0,0,0-4.708-1.2V11.68h-.718v1.461a10.627,10.627,0,0,0-4.683,1.242l-.724-1.254-.622.359.73,1.265a10.456,10.456,0,0,0-3.422,3.424l-1.266-.731-.359.622,1.256.725a10.623,10.623,0,0,0-1.239,4.682H10.347v.718h1.466a10.6,10.6,0,0,0,1.25,4.675L11.8,29.6l.359.622,1.264-.73a10.742,10.742,0,0,0,1.266,1.645l-2.847,2.847a14.724,14.724,0,1,1,21.325,0Z"/>
        <path id="Path_17854" data-name="Path 17854" d="M33.419,12.908A15.443,15.443,0,0,0,11.577,34.746l.254.254,3.861-3.861-.254-.254A10.024,10.024,0,0,1,28.129,15.508a6.713,6.713,0,0,1,.694.554l-6.644,5.2a2.157,2.157,0,1,0,1.835,3.666,2.119,2.119,0,0,0,.6-1.19L29.9,17.151a9.948,9.948,0,0,1-.348,13.734l-.254.254L33.158,35l.254-.254a15.443,15.443,0,0,0,0-21.838Zm-9.906,11.51a1.477,1.477,0,0,1-2.037-.011,1.44,1.44,0,1,1,2.451-.852,1.4,1.4,0,0,1-.415.862Zm1.03-1.729h0a2.169,2.169,0,0,0-1.312-1.331l6.125-4.792.058.058Zm8.62,11.293-2.847-2.847a10.742,10.742,0,0,0,1.266-1.645l1.264.73.359-.622-1.267-.732a10.6,10.6,0,0,0,1.25-4.675h1.466v-.718H33.187a10.623,10.623,0,0,0-1.239-4.682l1.256-.725-.359-.622-1.267.731a10.746,10.746,0,0,0-1.218-1.591l1.779-2.216a.359.359,0,0,0-.5-.507L29.4,15.612a7.637,7.637,0,0,0-.864-.7c-.113-.077-.232-.146-.348-.218l.7-1.21-.622-.359-.7,1.211a10.758,10.758,0,0,0-4.708-1.2V11.68h-.718v1.461a10.627,10.627,0,0,0-4.683,1.242l-.724-1.254-.622.359.73,1.265a10.456,10.456,0,0,0-3.422,3.424l-1.266-.731-.359.622,1.256.725a10.623,10.623,0,0,0-1.239,4.682H10.347v.718h1.466a10.6,10.6,0,0,0,1.25,4.675L11.8,29.6l.359.622,1.264-.73a10.742,10.742,0,0,0,1.266,1.645l-2.847,2.847a14.724,14.724,0,1,1,21.325,0Z" fill="none" stroke="#000" stroke-width="0.5"/>
      </g>
    </g>
  </g>
</svg>
