<svg xmlns="http://www.w3.org/2000/svg" xmlns:xlink="http://www.w3.org/1999/xlink" width="45" height="45" viewBox="0 0 45 45">
  <defs>
    <clipPath id="clip-path">
      <rect id="Rectangle_2688" data-name="Rectangle 2688" width="28.617" height="23" fill="#50b848"/>
    </clipPath>
  </defs>
  <g id="platforms_icon" data-name="platforms icon" transform="translate(-51 -424)">
    <g id="Ellipse_223" data-name="Ellipse 223" transform="translate(51 424)" fill="none" stroke="#50b848" stroke-width="1.5">
      <circle cx="22.5" cy="22.5" r="22.5" stroke="none"/>
      <circle cx="22.5" cy="22.5" r="21.75" fill="none"/>
    </g>
    <g id="Group_15783" data-name="Group 15783" transform="translate(59 435)">
      <g id="Group_15783-2" data-name="Group 15783" transform="translate(0 2)" clip-path="url(#clip-path)">
        <path id="Path_17944" data-name="Path 17944" d="M59.985,8.877l3.976-6.563-1.433-.686L58.875,7.667c.247.66.759.871,1.006,1.53Z" transform="translate(-39.713 -1.158)" fill="#50b848"/>
        <path id="Path_17945" data-name="Path 17945" d="M21.72,7.2,17.85.864l-1.432.671,3.856,6.334Z" transform="translate(-11.074 -0.614)" fill="#50b848"/>
        <path id="Path_17946" data-name="Path 17946" d="M35.986,2.154l3.254,5.4q.848-.013,1.71-.051c-.271-.531-.591-1.041-.591-1.041L36.648.083h-1.3l-3.8,6.5-.085.134c-.17.25-.334.493-.488.723q.937.01,1.86.03Z" transform="translate(-20.89 -0.059)" fill="#50b848"/>
        <path id="Path_17947" data-name="Path 17947" d="M38.229,25.64l.3.211L34.853,37.636l-3.6-11.557c0-.006.01-.01.015-.017l.556-.5q-.922-.02-1.86-.03c-.18.267-.346.225-.488.435l4.535,14.285s.123.43.147.491a.616.616,0,0,0,.684.4.7.7,0,0,0,.685-.356c.046-.085.177-.539.177-.539L40.21,25.894c-.069-.183-.166-.1-.27-.306q-.861.037-1.71.051" transform="translate(-19.879 -18.144)" fill="#50b848"/>
        <rect id="Rectangle_2687" data-name="Rectangle 2687" width="7.811" height="1.447" transform="translate(11.241 6.509)" fill="#50b848"/>
        <path id="Path_17948" data-name="Path 17948" d="M28.206,22.9a.831.831,0,0,0-.726-.4h-.8c.089.36-.223.505-.508.8-.139.187-.145.571-.392.651h.086L14.9,37.146,2.569,23.947h.1c-.031-.025-.066-.048-.094-.076a1.608,1.608,0,0,1-.318-.338A1.223,1.223,0,0,1,2.109,22.5H.835a.846.846,0,0,0-.767.374.713.713,0,0,0,.142.8L14.315,38.755a.838.838,0,0,0,.626.235h.023a.8.8,0,0,0,.632-.267l12.538-15.07a.657.657,0,0,0,.072-.755" transform="translate(0 -15.991)" fill="#50b848"/>
        <path id="Path_17949" data-name="Path 17949" d="M.873,7.624a.871.871,0,0,1-.482-.142A.667.667,0,0,1,.226,6.477L5.414.289A.845.845,0,0,1,6.062,0H23.184a.84.84,0,0,1,.671.318l4.67,6.18a.671.671,0,0,1-.22,1,.872.872,0,0,1-1.121-.2l-4.43-5.863H6.468l-4.946,5.9a.844.844,0,0,1-.648.289" transform="translate(-0.044 0)" fill="#50b848"/>
        <path id="Path_17950" data-name="Path 17950" d="M30.485,22.5H7.392c-.037.752.771.913,1.185,1.447H30.268Z" transform="translate(-4.986 -15.991)" fill="#50b848"/>
        <path id="Path_17951" data-name="Path 17951" d="M78.956,22.5H77.9l-.217,1.447h.609l.946-1.085Z" transform="translate(-52.399 -15.991)" fill="#50b848"/>
        <path id="Path_17952" data-name="Path 17952" d="M5.865,22.458l1,.012,1.193,1.447-1.8-.012-.8-.989Z" transform="translate(-3.682 -15.961)" fill="#50b848"/>
      </g>
    </g>
  </g>
</svg>
