<svg xmlns="http://www.w3.org/2000/svg" xmlns:xlink="http://www.w3.org/1999/xlink" width="45" height="45" viewBox="0 0 45 45">
  <defs>
    <clipPath id="clip-path">
      <rect id="Rectangle_2669" data-name="Rectangle 2669" width="45" height="45" fill="none"/>
    </clipPath>
  </defs>
  <g id="Group_15736" data-name="Group 15736" transform="translate(-51 -223)">
    <g id="Group_15725" data-name="Group 15725" transform="translate(51 223)" opacity="0.5">
      <g id="Group_15724" data-name="Group 15724" clip-path="url(#clip-path)">
        <circle id="Ellipse_329" data-name="Ellipse 329" cx="21.75" cy="21.75" r="21.75" transform="translate(0.75 0.75)" fill="none" stroke="#000" stroke-width="1.5"/>
        <path id="Path_17835" data-name="Path 17835" d="M17.456,29.324,20.6,36.372a1.532,1.532,0,1,1-2.8,1.25l-3.163-7.084a4.636,4.636,0,0,1-.465.114l3.2,7.162a2,2,0,0,0,3.658-1.633l-3.148-7.049Z"/>
        <path id="Path_17836" data-name="Path 17836" d="M17.456,29.324,20.6,36.372a1.532,1.532,0,1,1-2.8,1.25l-3.163-7.084a4.636,4.636,0,0,1-.465.114l3.2,7.162a2,2,0,0,0,3.658-1.633l-3.148-7.049Z" fill="none" stroke="#000" stroke-width="1"/>
        <path id="Path_17837" data-name="Path 17837" d="M27.375,14.393a2.714,2.714,0,0,1,.77-.114,2.135,2.135,0,0,1,2.014,1.2l1.068,2.392a2.008,2.008,0,0,1-.037,1.673,2.593,2.593,0,0,1-1.012,1.125l.193.434a3.092,3.092,0,0,0,1.247-1.363,2.473,2.473,0,0,0,.038-2.061l-1.069-2.393a2.6,2.6,0,0,0-2.443-1.479,3.22,3.22,0,0,0-.964.151Z"/>
        <path id="Path_17838" data-name="Path 17838" d="M27.375,14.393a2.714,2.714,0,0,1,.77-.114,2.135,2.135,0,0,1,2.014,1.2l1.068,2.392a2.008,2.008,0,0,1-.037,1.673,2.593,2.593,0,0,1-1.012,1.125l.193.434a3.092,3.092,0,0,0,1.247-1.363,2.473,2.473,0,0,0,.038-2.061l-1.069-2.393a2.6,2.6,0,0,0-2.443-1.479,3.22,3.22,0,0,0-.964.151Z" fill="none" stroke="#000" stroke-width="1"/>
        <path id="Path_17839" data-name="Path 17839" d="M9.179,28.034a4.559,4.559,0,0,0,4.158,2.7,4.509,4.509,0,0,0,.836-.079,4.975,4.975,0,0,0,1.017-.314l2.262-1.011.43-.192.7-.312h-.053a.236.236,0,0,1-.215-.14l-.1-.214-3.219,1.437A4.078,4.078,0,0,1,9.6,27.847L8.5,25.369a4.081,4.081,0,0,1,2.063-5.39l3.22-1.438-.1-.215a.235.235,0,0,1,.042-.255l.033-.037-3.39,1.514a4.552,4.552,0,0,0-2.3,6.012Z"/>
        <path id="Path_17840" data-name="Path 17840" d="M9.179,28.034a4.559,4.559,0,0,0,4.158,2.7,4.509,4.509,0,0,0,.836-.079,4.975,4.975,0,0,0,1.017-.314l2.262-1.011.43-.192.7-.312h-.053a.236.236,0,0,1-.215-.14l-.1-.214-3.219,1.437A4.078,4.078,0,0,1,9.6,27.847L8.5,25.369a4.081,4.081,0,0,1,2.063-5.39l3.22-1.438-.1-.215a.235.235,0,0,1,.042-.255l.033-.037-3.39,1.514a4.552,4.552,0,0,0-2.3,6.012Z" fill="none" stroke="#000" stroke-width="1"/>
        <path id="Path_17841" data-name="Path 17841" d="M13.688,18.322l.1.215,4.434,9.931.1.214a.236.236,0,0,0,.215.14h.053l12.09-.313a1.31,1.31,0,0,1-.07-.134l-.147-.331-11.775.3-4.5-10.075,8.021-8.71L22,9.091l-8.231,8.937-.033.037a.234.234,0,0,0-.048.257"/>
        <path id="Path_17842" data-name="Path 17842" d="M13.688,18.322l.1.215,4.434,9.931.1.214a.236.236,0,0,0,.215.14h.053l12.09-.313a1.31,1.31,0,0,1-.07-.134l-.147-.331-11.775.3-4.5-10.075,8.021-8.71L22,9.091l-8.231,8.937-.033.037A.234.234,0,0,0,13.688,18.322Z" fill="none" stroke="#000" stroke-width="1"/>
        <path id="Path_17843" data-name="Path 17843" d="M22.2,9.561l8.253,18.48.147.331a1.31,1.31,0,0,0,.07.134A1.377,1.377,0,0,0,33.12,27.25L30.376,21.1l-.193-.434-2.8-6.277-.194-.434L24.445,7.815a1.376,1.376,0,1,0-2.54,1.06c.009.021.018.041.028.062L22,9.093Zm.151-.816a.905.905,0,0,1,1.653-.738l8.679,19.434a.907.907,0,0,1-.456,1.2h0a.9.9,0,0,1-1.2-.457Z"/>
        <path id="Path_17844" data-name="Path 17844" d="M22.2,9.561l8.253,18.48.147.331a1.31,1.31,0,0,0,.07.134A1.377,1.377,0,0,0,33.12,27.25L30.376,21.1l-.193-.434-2.8-6.277-.194-.434L24.445,7.815a1.376,1.376,0,1,0-2.54,1.06c.009.021.018.041.028.062L22,9.093Zm.151-.816a.905.905,0,0,1,1.653-.738l8.679,19.434a.907.907,0,0,1-.456,1.2h0a.9.9,0,0,1-1.2-.457Z" fill="none" stroke="#000" stroke-width="1"/>
        <path id="Path_17845" data-name="Path 17845" d="M30.572,12.511l.071.011a.235.235,0,0,0,.224-.163l1.169-3.693a.235.235,0,0,0-.449-.142l-1.168,3.693a.234.234,0,0,0,.152.294h0"/>
        <path id="Path_17846" data-name="Path 17846" d="M30.572,12.511l.071.011a.235.235,0,0,0,.224-.163l1.169-3.693a.235.235,0,0,0-.449-.142l-1.168,3.693a.234.234,0,0,0,.152.294Z" fill="none" stroke="#000" stroke-width="1"/>
        <path id="Path_17847" data-name="Path 17847" d="M32.409,14.166a.234.234,0,0,0,.128-.038l3.21-2.094a.236.236,0,0,0-.257-.4l-3.21,2.1a.235.235,0,0,0,.129.432Z"/>
        <path id="Path_17848" data-name="Path 17848" d="M32.409,14.166a.234.234,0,0,0,.128-.038l3.21-2.094a.236.236,0,0,0-.257-.4l-3.21,2.1a.235.235,0,0,0,.129.432Z" fill="none" stroke="#000" stroke-width="1"/>
        <path id="Path_17849" data-name="Path 17849" d="M33.346,16.332a.235.235,0,0,0,.234.214H33.6l3.509-.327a.235.235,0,1,0-.044-.468l-3.509.326a.234.234,0,0,0-.212.255"/>
        <path id="Path_17850" data-name="Path 17850" d="M33.346,16.332a.235.235,0,0,0,.234.214H33.6l3.509-.327a.235.235,0,1,0-.044-.468l-3.509.326A.234.234,0,0,0,33.346,16.332Z" fill="none" stroke="#000" stroke-width="1"/>
        <path id="Path_17851" data-name="Path 17851" d="M33.746,18.547a.236.236,0,1,0-.2.428l3.374,1.551a.236.236,0,1,0,.2-.428Z"/>
        <path id="Path_17852" data-name="Path 17852" d="M33.746,18.547a.236.236,0,1,0-.2.428l3.374,1.551a.236.236,0,1,0,.2-.428Z" fill="none" stroke="#000" stroke-width="1"/>
      </g>
    </g>
  </g>
</svg>
