<svg xmlns="http://www.w3.org/2000/svg" width="44.436" height="44.436" viewBox="0 0 44.436 44.436"><defs><style>.a{fill:#fff;}</style></defs><path class="a" d="M296.508,235.928a22.307,22.307,0,0,0-5-3.768,21.767,21.767,0,0,0-2.266-1.086q-.929-.381-1.891-.677a22.411,22.411,0,0,0-13.11.007q-.959.295-1.887.677a21.923,21.923,0,0,0-2.265,1.087q-.89.489-1.738,1.064a22.227,22.227,0,0,0-6.475,30.053q.531.863,1.137,1.67a22.22,22.22,0,0,0,40-13.318A22.072,22.072,0,0,0,296.508,235.928ZM297.89,263.2a20.639,20.639,0,0,1-34.185,0q-.25-.367-.483-.746a20.626,20.626,0,0,1,5.093-27.248q.446-.339.909-.653.214-.145.432-.285a20.506,20.506,0,0,1,1.9-1.083q.5-.249,1.008-.472a20.7,20.7,0,0,1,16.467,0q.511.222,1.007.471a20.526,20.526,0,0,1,1.9,1.083q.216.139.428.284.466.316.914.657A20.638,20.638,0,0,1,297.89,263.2Z" transform="translate(-258.579 -229.421)"/><g transform="translate(12.883 7.167)"><g transform="translate(0 0)"><path class="a" d="M385.081,317.063h-.621v-2.721h2.721v.621h-2.1Z" transform="translate(-384.46 -314.341)"/></g><g transform="translate(15.204 0)"><path class="a" d="M583.181,317.063h-.621v-2.1h-2.1v-.621h2.721Z" transform="translate(-580.46 -314.341)"/></g><g transform="translate(15.204 13.997)"><path class="a" d="M583.181,497.511H580.46v-.62h2.1v-2.1h.621Z" transform="translate(-580.46 -494.79)"/></g><g transform="translate(0 13.997)"><path class="a" d="M387.181,497.511H384.46V494.79h.621v2.1h2.1Z" transform="translate(-384.46 -494.79)"/></g></g><g transform="translate(-1924.277 -200.028)"><g transform="translate(1939.534 209.028)"><path class="a" d="M2051.228,223.387a7.18,7.18,0,1,1,7.179-7.18A7.188,7.188,0,0,1,2051.228,223.387Zm0-13.6a6.421,6.421,0,1,0,6.42,6.421A6.428,6.428,0,0,0,2051.228,209.787Z" transform="translate(-2044.048 -209.028)"/></g><g transform="translate(1931.277 224.571)"><path class="a" d="M1961.771,430.806h-30.115a.38.38,0,0,1-.38-.38,9.133,9.133,0,0,1,9.122-9.122.379.379,0,0,1,0,.759,8.374,8.374,0,0,0-8.355,7.984h29.339a8.374,8.374,0,0,0-8.355-7.984.379.379,0,0,1,0-.759,9.133,9.133,0,0,1,9.123,9.122A.38.38,0,0,1,1961.771,430.806Z" transform="translate(-1931.277 -421.304)"/></g></g></svg>