<svg xmlns="http://www.w3.org/2000/svg" width="47" height="46" viewBox="0 0 47 46"><defs><style>.a{fill:#fff;stroke-width:0.5px;}.a,.b{stroke:#fff;}.b,.d{fill:none;}.b{stroke-width:1.5px;}.c{stroke:none;}</style></defs><g transform="translate(13.644 10.767)"><g transform="translate(0 0)"><g transform="translate(2.304 2.27)"><path class="a" d="M358.147,325.082H341.916V302.345h16.231Zm-15.82-.41h15.41V302.755h-15.41Z" transform="translate(-341.916 -302.345)"/></g><g transform="translate(18.875 3.411)"><path class="a" d="M666.2,345.065h-1.025v-.41h.614V325.021h-.614v-.41H666.2Z" transform="translate(-665.176 -324.611)"/></g><g transform="translate(0 0)"><path class="a" d="M298.239,281.668l-1.259-22.7,16.205-.9.113,1.948-.409.024-.089-1.54-4.046.224-11.342.629,1.213,21.884.3-.015.02.41Z" transform="translate(-296.981 -258.069)"/></g><g transform="translate(11.18 18.164)"><g transform="translate(0 0)"><path class="a" d="M517.648,617.577a2.588,2.588,0,1,1,2.588-2.588A2.591,2.591,0,0,1,517.648,617.577Zm0-4.766a2.178,2.178,0,1,0,2.178,2.178A2.18,2.18,0,0,0,517.648,612.811Z" transform="translate(-515.06 -612.401)"/></g><g transform="translate(1.269 1.65)"><path class="a" d="M540.822,646.608,539.8,645.59l.29-.29.727.727,1.441-1.441.29.29Z" transform="translate(-539.805 -644.587)"/></g></g><g transform="translate(4.688 4.921)"><g transform="translate(0 13.243)"><rect class="a" width="5.132" height="0.41"/></g><g transform="translate(2.866 0)"><rect class="a" width="3.23" height="0.41"/><g transform="translate(4.011)"><rect class="a" width="1.121" height="0.41"/></g></g><g transform="translate(0.546 1.965)"><rect class="a" width="9.771" height="0.41"/></g><g transform="translate(1.264 3.931)"><rect class="a" width="10.149" height="0.41"/></g><g transform="translate(0.546 5.896)"><rect class="a" width="9.75" height="0.41"/></g><g transform="translate(0.546 7.862)"><rect class="a" width="9.75" height="0.41"/></g><g transform="translate(3.439 9.827)"><rect class="a" width="7.974" height="0.41"/></g><g transform="translate(0 16.419)"><rect class="a" width="3.239" height="0.41"/></g></g></g></g><g class="b"><ellipse class="c" cx="23.5" cy="23" rx="23.5" ry="23"/><ellipse class="d" cx="23.5" cy="23" rx="22.75" ry="22.25"/></g></svg>