<svg xmlns="http://www.w3.org/2000/svg" width="32.809" height="48.523" viewBox="0 0 32.809 48.523">
  <g id="Group_2915" data-name="Group 2915" transform="translate(-394.886 -344.542)">
    <path id="Path_5490" data-name="Path 5490" d="M426.792,351.373a1.171,1.171,0,0,1,.428-.838,1.276,1.276,0,0,0,.475-1.011v-3.745a1.182,1.182,0,0,0-1.118-1.237H396a1.182,1.182,0,0,0-1.118,1.237v3.745a1.277,1.277,0,0,0,.475,1.011,1.171,1.171,0,0,1,.428.838,21.782,21.782,0,0,0,8.469,15.866l.813.6a1.2,1.2,0,0,1,0,1.923l-.813.6a21.78,21.78,0,0,0-8.469,15.866,1.171,1.171,0,0,1-.428.838,1.277,1.277,0,0,0-.475,1.011v3.745A1.182,1.182,0,0,0,396,393.065h30.574a1.182,1.182,0,0,0,1.118-1.237v-3.745a1.277,1.277,0,0,0-.475-1.011,1.17,1.17,0,0,1-.428-.838,21.781,21.781,0,0,0-8.469-15.866l-.813-.6a1.2,1.2,0,0,1,0-1.923l.813-.6A21.781,21.781,0,0,0,426.792,351.373Zm-27.841-4.959H423.57a1.2,1.2,0,0,1,1.2,1.2v.082a1.2,1.2,0,0,1-1.2,1.2H398.951a1.2,1.2,0,0,1-1.2-1.2v-.082A1.2,1.2,0,0,1,398.951,346.414ZM423.7,391.049h-24.64a1.2,1.2,0,0,1-1.2-1.2h0a1.2,1.2,0,0,1,1.2-1.2H423.7a1.2,1.2,0,0,1,1.2,1.2h0A1.2,1.2,0,0,1,423.7,391.049Zm-10.12-23.273a1.313,1.313,0,0,0,0,2.056l3.5,2.592A19.144,19.144,0,0,1,424.47,385.5a1.2,1.2,0,0,1-1.189,1.346H399.3a1.2,1.2,0,0,1-1.19-1.346,19.145,19.145,0,0,1,7.391-13.076l3.5-2.592a1.313,1.313,0,0,0,0-2.056l-3.5-2.592a19.145,19.145,0,0,1-7.391-13.076,1.2,1.2,0,0,1,1.19-1.346h23.98a1.2,1.2,0,0,1,1.189,1.346,19.145,19.145,0,0,1-7.391,13.076l-3.5,2.592Z" fill="#7a7a7a"/>
  </g>
</svg>
