<svg xmlns="http://www.w3.org/2000/svg" width="34.014" height="43.66" viewBox="0 0 34.014 43.66"><defs><style>.a{fill:#7a7a7a;stroke:#7a7a7a;}</style></defs><g transform="translate(0.5 0.5)"><g transform="translate(0 0)"><path class="a" d="M372.368,345.005H341.916v-42.66h30.452Zm-29.683-.769H371.6V303.114H342.685Z" transform="translate(-341.916 -302.345)"/></g><g transform="translate(31.092 2.142)"><path class="a" d="M667.1,362.988h-1.922v-.769h1.153V325.381h-1.153v-.77H667.1Z" transform="translate(-665.176 -324.611)"/></g><g transform="translate(16.653 29.822)"><g transform="translate(0 0)"><path class="a" d="M519.916,622.112a4.855,4.855,0,1,1,4.855-4.855A4.861,4.861,0,0,1,519.916,622.112Zm0-8.941A4.086,4.086,0,1,0,524,617.256,4.091,4.091,0,0,0,519.916,613.17Z" transform="translate(-515.06 -612.401)"/></g><g transform="translate(2.38 3.096)"><path class="a" d="M541.713,648.378,539.8,646.47l.544-.544,1.364,1.364,2.7-2.7.544.544Z" transform="translate(-539.805 -644.587)"/></g></g><g transform="translate(4.473 4.975)"><g transform="translate(0 24.847)"><rect class="a" width="9.629" height="0.769"/></g><g transform="translate(5.378 0)"><rect class="a" width="6.061" height="0.769"/><g transform="translate(7.525)"><rect class="a" width="2.103" height="0.769"/></g></g><g transform="translate(1.025 3.688)"><rect class="a" width="18.333" height="0.769"/></g><g transform="translate(2.371 7.375)"><rect class="a" width="19.043" height="0.769"/></g><g transform="translate(1.025 11.063)"><rect class="a" width="18.293" height="0.769"/></g><g transform="translate(1.025 14.751)"><rect class="a" width="18.293" height="0.769"/></g><g transform="translate(6.452 18.438)"><rect class="a" width="14.962" height="0.769"/></g><g transform="translate(0 30.806)"><rect class="a" width="6.078" height="0.769"/></g></g></g></svg>