<svg xmlns="http://www.w3.org/2000/svg" width="45" height="45" viewBox="0 0 45 45">
  <g id="Group_15605" data-name="Group 15605" transform="translate(-51 -223)" opacity="0.5">
    <g id="Ellipse_221" data-name="Ellipse 221" transform="translate(51 223)" fill="none" stroke="#fff" stroke-width="1.5">
      <circle cx="22.5" cy="22.5" r="22.5" stroke="none"/>
      <circle cx="22.5" cy="22.5" r="21.75" fill="none"/>
    </g>
    <g id="Group_22" data-name="Group 22" transform="translate(60.898 234)">
      <path id="Path_184" data-name="Path 184" d="M305.273,284.628h-1.2v-4.463a1.554,1.554,0,0,0-1.554-1.554H299.6l-.78-2.15a1,1,0,0,0-.935-.658,1.006,1.006,0,0,0-.339.06l-2,.73-.339-.935a1,1,0,0,0-.935-.658,1.007,1.007,0,0,0-.339.06l-9.716,3.55h-2.664A1.554,1.554,0,0,0,280,280.165v14.542a1.555,1.555,0,0,0,1.554,1.554h20.96a1.554,1.554,0,0,0,1.554-1.554v-4.463h1.2a.4.4,0,0,0,.4-.4v-4.814A.4.4,0,0,0,305.273,284.628Zm-9.453-7.281,2-.73a.19.19,0,0,1,.064-.012.193.193,0,0,1,.18.128l.68,1.877h-6.38l2.7-.989Zm-1.611-1.532a.189.189,0,0,1,.064-.012.193.193,0,0,1,.181.128l.339.937-4.768,1.743h-3.466Zm9.058,18.892a.752.752,0,0,1-.752.752h-20.96a.752.752,0,0,1-.752-.752V280.165a.752.752,0,0,1,.752-.752h20.96a.752.752,0,0,1,.752.752v4.463h-2.808a2.808,2.808,0,1,0,0,5.616h2.808Zm1.6-5.265h-4.413a2.006,2.006,0,1,1,0-4.012h4.413Z" transform="translate(-280 -275)" fill="#fff" stroke="#fff" stroke-width="0.5"/>
      <path id="Path_185" data-name="Path 185" d="M761.4,550a1.4,1.4,0,1,0,1.4,1.4A1.406,1.406,0,0,0,761.4,550Zm0,2.006a.6.6,0,1,1,.6-.6A.6.6,0,0,1,761.4,552.006Z" transform="translate(-740.745 -538.968)" fill="#fff" stroke="#fff" stroke-width="0.5"/>
    </g>
  </g>
</svg>
