<svg xmlns="http://www.w3.org/2000/svg" width="47.529" height="39.309" viewBox="0 0 47.529 39.309">
  <g id="Group_2359" data-name="Group 2359" transform="translate(-606 -574.865)">
    <line id="Line_217" data-name="Line 217" y2="15.938" transform="translate(629.729 596.807)" fill="none" stroke="#7a7a7a" stroke-linecap="round" stroke-linejoin="round" stroke-width="2"/>
    <path id="Path_5476" data-name="Path 5476" d="M652.1,604.383a.145.145,0,0,1-.143.143H607.572a.145.145,0,0,1-.143-.143V583.656H652.1v20.727Zm-44.67-27.945a.145.145,0,0,1,.143-.143h44.384a.145.145,0,0,1,.143.143v5.789h-44.67v-5.789Zm44.527-1.572H607.572A1.574,1.574,0,0,0,606,576.437v27.945a1.574,1.574,0,0,0,1.572,1.572h44.384a1.574,1.574,0,0,0,1.573-1.572V576.437a1.574,1.574,0,0,0-1.573-1.572Z" fill="#7a7a7a"/>
    <path id="Path_5477" data-name="Path 5477" d="M929.281,1153.394l-4.207,3.254-3.966-3.24a.818.818,0,0,0-1.036,1.268l4.471,3.652a.817.817,0,0,0,1.018.014l4.722-3.651a.818.818,0,1,0-1-1.295Z" transform="translate(-295.314 -544.337)" fill="#7a7a7a"/>
    <path id="Path_5478" data-name="Path 5478" d="M1201.582,864.008a2.182,2.182,0,0,1,2.18-2.18h2a2.182,2.182,0,0,1,2.18,2.18v2a2.183,2.183,0,0,1-2.18,2.18h-2a2.182,2.182,0,0,1-2.18-2.18v-2Zm2.18,5.611h2a3.613,3.613,0,0,0,3.609-3.609v-2a3.613,3.613,0,0,0-3.609-3.609h-2a3.613,3.613,0,0,0-3.609,3.609v2a3.614,3.614,0,0,0,3.609,3.609Z" transform="translate(-559.203 -268.738)" fill="#7a7a7a"/>
    <path id="Path_5479" data-name="Path 5479" d="M683.262,787.711H697.2a.715.715,0,0,0,0-1.429H683.262a.715.715,0,0,0,0,1.429Z" transform="translate(-72.044 -198.981)" fill="#7a7a7a"/>
  </g>
</svg>
