<svg xmlns="http://www.w3.org/2000/svg" xmlns:xlink="http://www.w3.org/1999/xlink" width="1920" height="1190" viewBox="0 0 1920 1190"><defs><style>.a{fill:#fff;stroke:#707070;}.b{clip-path:url(#a);}.c{fill:#f8faff;}</style><clipPath id="a"><rect class="a" width="1920" height="1190" transform="translate(0 3764)"/></clipPath></defs><g class="b" transform="translate(0 -3764)"><g transform="translate(0 -889)"><path class="c" d="M2002.941,2612.513c278.811,146.206,473.751,218.947,1016.136-325.008,612.326-614.1,1163.608-403.467,1281.9-85.979l158.4,569.628s-307.272-170.992-584.4-131.908S3344.12,2950.662,3249.664,3045.7s-637.041,676.122-1238.906-148.512Z" transform="matrix(0.951, 0.309, -0.309, 0.951, -1261.755, 1801.604)"/><path class="c" d="M2002.941,2612.513c278.811,146.206,473.751,218.947,1016.136-325.008,612.326-614.1,1163.608-403.467,1281.9-85.979l121.9,612.7s-243.782-213.1-547.892-174.979-504.16,281.392-625.313,406.454-637.041,676.122-1238.906-148.512Z" transform="matrix(0.951, 0.309, -0.309, 0.951, -1219.755, 1737.771)"/></g></g></svg>