<svg xmlns="http://www.w3.org/2000/svg" xmlns:xlink="http://www.w3.org/1999/xlink" width="1920" height="1613" viewBox="0 0 1920 1613"><defs><style>.a{fill:#fff;stroke:#707070;}.b{clip-path:url(#a);}.c{fill:#f8faff;}</style><clipPath id="a"><rect class="a" width="1920" height="1613" transform="translate(0 890)"/></clipPath></defs><g class="b" transform="translate(0 -890)"><rect class="c" width="1920" height="982" transform="translate(4 1276)"/><path class="c" d="M2002.941,2612.513c278.811,146.206,473.751,218.947,1016.136-325.008,612.326-614.1,1163.608-403.467,1281.9-85.979v707.387s-183.685-257.943-426-269.668-504.16,281.392-625.313,406.454-637.041,676.122-1238.906-148.512Z" transform="matrix(0.951, 0.309, -0.309, 0.951, -1250.238, -2049.41)"/><path class="c" d="M2002.941,2612.513c278.811,146.206,473.751,218.947,1016.136-325.008,612.326-614.1,1163.608-403.467,1281.9-85.979l282.681,329.326s-435.908,17.563-708.677,108.394-504.16,281.392-625.313,406.454-637.041,676.122-1238.906-148.512Z" transform="translate(-628.196 -1916.702) rotate(30)"/></g></svg>